<svg version="1.2" xmlns="http://www.w3.org/2000/svg" viewBox="0 0 171 133" width="171" height="133"><style>.a{fill:#ee9745}</style><path fill-rule="evenodd" class="a" d="m169.6 69.3c-5.1 1.5-9.6 4.1-13.6 7.3-6.2 4.8-11.5 11-16.4 17.2q-0.1 0.1-0.2 0.2c0 0.6-0.3 1.1-0.9 1.4-2.1 1-4.2 2.4-6.1 3.9-3 2.4-5.8 5-8.5 7.5q-6.6 5.9-12.5 12.2-6 6.4-11.4 13.3c-0.4 0.5-1.1 0.7-1.7 0.5-0.8 0.3-1.6-0.1-2-0.8-1.9-3.7-3.9-7.4-5.9-11-3.2-5.5-6.5-10.9-9.7-16.3-3-4.9-6-9.9-9.5-14.5-2.3-3-4.9-5.8-7.8-8.2-0.7-0.6-0.8-1.6-0.2-2.2q0-0.1 0.1-0.1c-0.2-0.5-0.1-1.1 0.3-1.5l8.9-10.5q0 0 0 0-1.2-2.1-2.5-4.1c-0.4-0.8-0.2-1.7 0.5-2.2q0 0 0 0 0.1-0.2 0.2-0.4c4.9-6.4 10.9-11.8 17.6-15.8 6.7-3.9 14.2-6.4 22.2-7.2 2.3-6.2 6.4-12.1 11.5-16.9 5.3-5 11.7-8.8 18.2-10.7q0 0 0 0 0.2-0.2 0.4-0.3c0.7-0.5 1.7-0.2 2.1 0.5q6.6 11.1 13.1 22.3 6.4 11.3 12.5 22.6c0.3 0.6 0.2 1.4-0.2 1.9-0.1 0.5-0.5 1-1.1 1.2q-1.5 0.6-2.9 1.2l5.7 5.8c0.3 0.3 0.5 0.7 0.5 1.1q0.2 0.3 0.3 0.6c0.3 0.8-0.2 1.7-1 2zm-56.5-29.4c5 9 10 18 14.4 27.4 2.7 5.7 5.1 11.5 7.1 17.5 4.4-6.5 9.3-13.3 15.2-18.9 4.5-4.2 9.5-7.7 15.2-9.9q-5.8-10.8-12-21.5-6-10.6-12.2-21c-6 1.8-11.8 5.3-16.7 9.9-4.9 4.6-8.8 10.3-10.9 16.3q-0.1 0.1-0.1 0.2zm-39.8 23q2.8 4.5 5.4 9.2c2.8 5.2 5.5 10.5 8.1 15.7l13.5 25.5c3.3-6.1 7.4-11.5 12.4-15.8 5.5-4.7 12-8.1 19.6-9.5q-0.1-0.1-0.1-0.3c-2-6.5-4.6-12.9-7.5-19.1-4.4-9.3-9.5-18.4-14.5-27.4-7.3 0.8-14.1 3.1-20.3 6.7-6.3 3.8-12 8.9-16.6 15zm62.7 30.3q-0.3-0.2-0.5-0.6l-1-2q-0.3 0.3-0.8 0.3c-7.3 1.2-13.7 4.4-18.9 9-5.4 4.6-9.6 10.5-12.8 17.1-0.4 0.8-1.4 1.1-2.1 0.7q-0.3-0.1-0.5-0.4c-0.4-0.1-0.7-0.4-0.9-0.8l-14.5-27.3c-2.6-5.1-5.3-10.4-8.1-15.6q-0.9-1.5-1.7-3l-8.2 9.6c2.9 2.4 5.4 5.2 7.6 8.1 3.6 4.6 6.7 9.7 9.8 14.8 3.2 5.4 6.6 10.8 9.7 16.3q2.8 4.8 5.3 9.8 5.1-6.4 10.7-12.3 6-6.5 12.7-12.5c2.7-2.5 5.6-5.2 8.7-7.6 1.7-1.3 3.6-2.6 5.5-3.6zm30.7-26.3l-5.3-5.2q-0.1-0.2-0.2-0.4c-3.3 1.9-6.4 4.3-9.2 6.9-6.2 5.8-11.2 13-15.7 19.8 0.4 0.1 0.7 0.4 0.8 0.8l1 1.9c4.8-6 9.9-11.9 15.9-16.6 3.9-3 8-5.5 12.7-7.2zm-35.1-32.2c-3 2-5.7 4.4-8.4 6.9-0.6 0.6-1.6 0.6-2.2 0-0.6-0.7-0.5-1.7 0.1-2.3 2.8-2.6 5.6-5.1 8.8-7.3 2.1-1.4 4.4-2.7 6.8-3.6 0.8-0.3 1.8 0.1 2.1 0.9 0.3 0.8-0.1 1.7-0.9 2-2.3 0.9-4.3 2-6.3 3.4zm5.2 10c1.7-1.2 3.6-2.3 5.6-3.2 0.8-0.3 1.7 0.1 2.1 0.9 0.3 0.8-0.1 1.7-0.9 2-2.2 1-4.2 2.3-6.1 3.8-1.9 1.5-3.7 3.2-5.5 5-0.6 0.6-1.6 0.6-2.2 0-0.6-0.6-0.7-1.6 0-2.2 2.2-2.3 4.5-4.4 7-6.3zm6.9 11.6c2-1.7 4.1-3.3 6.4-4.5 0.7-0.4 1.7-0.1 2.1 0.7 0.4 0.7 0.1 1.7-0.6 2.1-2.1 1.1-4 2.5-5.8 4.1-2.8 2.4-5.3 5.2-7.7 7.8-0.6 0.7-1.6 0.7-2.2 0.1-0.7-0.6-0.7-1.6-0.1-2.2 2.5-2.7 5.1-5.6 7.9-8.1zm-60.7 10.4c-0.7-0.6-0.6-1.6 0-2.3 3-3 6.3-5.7 9.9-8 3.5-2.3 7.4-4.2 11.6-5.5 0.8-0.2 1.7 0.3 1.9 1.1 0.3 0.8-0.2 1.7-1 2-3.9 1.1-7.5 2.9-10.8 5-3.4 2.2-6.5 4.8-9.4 7.7-0.6 0.6-1.6 0.6-2.2 0zm17.9 4.2c2.8-1.7 5.7-3.1 9-4.2 0.9-0.3 1.7 0.1 2 0.9 0.3 0.9-0.1 1.8-1 2-3 1.1-5.8 2.4-8.3 4-2.6 1.6-5.1 3.4-7.5 5.6-0.7 0.6-1.7 0.5-2.2-0.1-0.6-0.7-0.5-1.7 0.1-2.3 2.6-2.3 5.2-4.2 7.9-5.9zm10.4 12.8c2.5-1.8 5.2-3.4 8.1-4.7 0.8-0.4 1.7-0.1 2.1 0.7 0.3 0.8 0 1.8-0.8 2.1-2.7 1.3-5.2 2.8-7.5 4.5-3.6 2.6-7 5.6-10.2 8.6-0.7 0.6-1.7 0.6-2.3-0.1-0.6-0.6-0.5-1.6 0.1-2.2 3.4-3.1 6.8-6.2 10.5-8.9zm-110.7-37c1.4-3.3 4.7-5.7 8.7-4.5l16.4-20.3q0.2-0.3 0.4-0.4c-0.8-1.2-1.2-2.7-1-4.2 0.1-1.9 1.1-3.9 2.6-5.1 1.3-1 2.6-1.6 4-1.7 1.3-0.2 2.7 0 4.1 0.4 0.7 0.2 1.2 1 1.1 1.7 0.5 0.8 1 1.7 1.3 2.6 0.3 0.8 0.3 1.6 0.2 2.5-0.2 1.1-0.7 2.2-1.4 3.1q2 2.6 3.9 5.3c1.9 2.8 3.6 5.7 5.3 8.5 0.3 0.5 0.3 0.9 0.2 1.4 1-0.5 2.2-0.6 3.5-0.2q0.1-0.2 0.2-0.4 3.5-5.7 6.7-11.6 3.2-5.8 6.2-11.8 0.2-0.4 0.6-0.7c-0.6-1.1-0.9-2.3-0.8-3.6 0.1-1.9 1-3.8 2.4-5.1 1.1-1 2.5-1.5 3.9-1.7 1.3-0.2 2.8-0.1 4.1 0.4 0.6 0.2 1 0.8 1 1.5q0.2 0.1 0.4 0.3c2.4 3 1.7 6.7-0.4 9.1q-0.1 0-0.2 0.1 2.2 1.8 4.3 3.7c1.6 1.6 3.1 3.2 4.6 4.8q0.2 0.3 0.3 0.5c1.8-0.7 3.8-0.5 5.9 0.9 0.3 0.2 0.5 0.6 0.6 0.9q0.1 0.1 0.2 0.2c2.4 2.8 1.9 6.9-0.1 9.7-2.3 2.9-6.1 4.2-9.6 0.9-2.9-2.7-2.6-6.8-0.6-9.7q0.4-0.7 1-1.2 0 0-0.1-0.1c-1.4-1.5-2.8-3.1-4.4-4.6-1.5-1.5-3.1-2.9-4.8-4.1q0-0.1 0-0.1c-1.7 0.6-3.7 0.5-5.5-0.6q-3 6-6.2 11.9-3.3 5.9-6.8 11.6 0 0.1 0 0.1c2.4 1.8 2.6 5 1.3 7.7-1.4 3.1-4.5 5.3-7.8 4-3.8-1.4-4.8-5.1-3.8-8.3 0.4-1.4 1.1-2.6 2.2-3.5-0.5 0-0.9-0.3-1.1-0.7-1.8-2.8-3.5-5.7-5.3-8.4q-1.7-2.6-3.7-4.9-0.1 0-0.2 0.1c-1.8 1.1-4 1.3-6 0.3q-0.1 0.2-0.2 0.4l-16.3 20.1c2.4 2.3 2.5 5.8 1.1 8.6-1.7 3.2-5.2 5.3-9.1 3.4-3.9-1.8-4.6-5.9-3.3-9.2zm81.6-20.7c-1.2 1.6-1.5 4.1 0.2 5.6 1.8 1.7 3.7 1 4.8-0.6 1.3-1.6 1.7-4 0.3-5.7q-0.3-0.3-0.3-0.6c-2-1.3-3.9-0.3-5 1.3zm-15.1-15.4c1.7 1.2 3.6 0.7 4.8-0.6 1.1-1.2 1.6-3.3 0.3-4.9q-0.4-0.4-0.4-1c-0.7-0.2-1.5-0.2-2.3-0.1-0.8 0.1-1.5 0.4-2.2 0.9-0.8 0.8-1.3 1.9-1.3 3-0.1 1 0.2 2 1.1 2.7zm-21.6 30.8c-0.5 1.7-0.1 3.7 1.9 4.5 1.7 0.6 3.2-0.8 3.9-2.4 0.7-1.5 0.8-3.5-0.9-4.2q-0.3-0.2-0.5-0.3-0.2 0-0.4-0.1c-2-0.7-3.5 0.8-4 2.5zm-16.2-21.1c1.1 0.8 2.5 0.7 3.6 0.1 1.2-0.7 2.2-2 2.4-3.3 0.1-0.4 0-0.9-0.2-1.3-0.2-0.6-0.6-1.1-0.9-1.7q-0.2-0.2-0.2-0.4-1-0.2-1.9-0.1c-0.9 0.1-1.6 0.4-2.4 1-0.9 0.7-1.4 1.9-1.5 3-0.1 1 0.2 2 1.1 2.7zm-24 32.8c2.1 1 4-0.3 4.9-2 0.9-1.8 0.9-4.1-1.1-5.3q-0.3-0.2-0.5-0.6h-0.2c-2.2-0.7-4.1 0.8-4.9 2.7-0.7 1.8-0.4 4.2 1.8 5.2z"/></svg>