<svg version="1.2" xmlns="http://www.w3.org/2000/svg" viewBox="0 0 238 418" width="238" height="418"><style>.a{fill:#ee9745}</style><path fill-rule="evenodd" class="a" d="m104.8 293.4c1.1 3.6 1.2 7.4 0.7 11.1-0.5 3.6-1.5 7.1-2.9 10.4-0.2 0.7-1.5 4.3-2.3 5.5-0.7 1-1.5 1.4-2 1.4-1.3 0.3-3.2-0.3-5.2-1.6-2.8-1.8-5.9-4.8-7.1-5.8-5.6-4.5-11.2-9-16.6-13.7-3.6-3.2-7.1-6.5-10.5-9.9q-0.3-0.3-0.4-0.6-0.2-0.1-0.3-0.3c-0.8-1-0.7-2.5 0.3-3.3 8-6.7 20.6-10.9 30.7-8.5 7 1.7 12.9 6.3 15.6 15.3zm-4.5 1.3c-2.7-8.9-9.4-12.4-16.8-12.6-6.9-0.1-14.4 2.6-20 6.6q4.4 4.4 9.1 8.4c5.3 4.7 10.8 9.2 16.4 13.7 1 0.8 3.4 3.1 5.7 4.8 0.8 0.5 1.4 1.1 2 1.4l1.5-3.8c1.2-3 2.2-6.1 2.6-9.3 0.4-3.1 0.4-6.2-0.5-9.2zm24.8 44.1c-0.3 0.3-1.1 1.4-1.8 2.1 2.7 2.8 9 8.2 10.1 9.9 0.3 0.5 0.6 1.5 0.1 2.8-0.7 1.7-3.3 5.2-3.8 5.9-2.5 3.8-5.4 7.8-8.4 11.6-2.2 2.6-4.4 5-6.7 7-0.5 0.4-1.6 1-3.2 0.4-1.9-0.7-6.1-3.6-6.7-4-4-2.7-8.1-5.4-12-8.3-2.6-1.9-5.2-3.9-7.7-6.1-14.9-13-30.1-25.6-44.9-38.7-6.4-5.6-12.7-11.3-18.9-17.2l-15.7-13.3c-0.7-0.6-3.6-2.6-4.6-3.7-0.7-0.8-0.9-1.6-0.8-2.1 0-0.7 0.2-1.5 0.8-2.4 0.9-1.5 2.8-3.5 3.4-4.3l11.3-14.5c0.3-0.4 2.7-3.8 3.7-5.1 1.3-1.7 3.1-1.3 3.3-1.3 1.6 0.7 3.2 1.6 4.8 2.6 1.7 1 3.3 2.2 4.8 3.4q0.2-0.2 0.5-0.4c8.4-5 17.4-9.9 26.7-13.3 6.4-2.3 13-3.9 19.8-4.4 14.2-1 28.8 3.9 40.1 12.7 11.4 8.9 19.3 21.9 20.2 36.9 0.3 5.9-0.4 11.7-1.9 17.3-1.4 5.6-3.6 11-6.3 16.2zm-6.9 2.5c0-0.5 0.1-1.3 0.7-2.3 0.7-1 2-2.5 2.3-2.9l6-9.8c2.5-4.8 4.6-9.9 5.9-15.2 1.4-5.1 2.1-10.5 1.8-15.9-0.8-13.6-8.1-25.3-18.4-33.4-10.4-8.1-23.8-12.6-36.9-11.6-6.3 0.4-12.5 1.9-18.5 4.1-9.1 3.3-17.8 8-25.9 12.9q-0.3 0.1-0.6 0.2-0.1 0.3-0.3 0.5c-0.8 1.1-2.3 1.3-3.3 0.5-1.9-1.4-3.9-3-6.1-4.3q-1.2-0.8-2.5-1.5c-1.1 1.6-2.8 4-3.1 4.3l-11.1 14.3-2.9 3.5c1 0.8 2.9 2.3 3.4 2.6l5.8 5 6.1-9.6c0.7-1.1 2.2-1.4 3.3-0.7 1.1 0.7 1.4 2.1 0.7 3.2l-6.5 10.1 6.4 5.5q4.4 4.1 8.9 8.1l6.4-9c0.8-1.1 2.2-1.3 3.3-0.6 1.1 0.8 1.3 2.2 0.6 3.3l-6.8 9.5q3.2 2.9 6.4 5.7 5.3 4.7 10.7 9.3 0-0.3 0.2-0.5l5.4-7.7c0.8-1.1 2.3-1.3 3.3-0.6 1.1 0.8 1.4 2.3 0.6 3.3l-5.4 7.7q-0.3 0.5-0.8 0.7 6.9 5.9 13.8 11.8l5.3-7.8c0.7-1.1 2.2-1.4 3.3-0.7 1.1 0.7 1.4 2.2 0.7 3.3l-5.7 8.3q6.8 5.8 13.5 11.7 0.4 0.3 0.8 0.6l6.4-8.4c0.8-1.1 2.3-1.3 3.3-0.5 1.1 0.8 1.3 2.2 0.5 3.3l-6.5 8.6q1.4 1.1 2.9 2.2c3.9 2.9 7.9 5.6 11.8 8.2 0.4 0.2 3.7 2.2 5.1 3.1 1.8-1.7 3.6-3.6 5.2-5.6 3-3.7 5.7-7.6 8.2-11.2l2.9-4.4c-1.9-2.2-6.9-6.4-9-8.5-1.2-1.2-1.6-2.3-1.6-2.7zm-23.6-303.4c0.3-7-0.2-14.1-0.9-21q-0.1-0.2 0-0.5c-2.6-1.2-4.9-3.1-5.7-5.1-1-2.4-0.7-5.3 3.3-7.6 2.5-1.4 5.4-2.4 8.3-2.9 2.9-0.4 5.9-0.3 8.7 0.3q0.4 0 0.8 0.3c0.5-0.3 1.1-0.5 1.7-0.3 2.7 0.6 8.2 4.2 9.5 7.6 0.8 2 0.6 4.1-1.3 5.7q0 0.2 0 0.4c0.6 4.9 1.3 9.9 2.4 14.7 1 4.8 2.4 9.5 4.2 14.1 3.7 8.7 8.7 18.2 11.2 27.9 1.8 6.9 2.4 13.9 0.6 20.9-1 3.7-3 6.3-5.5 8.1-3.6 2.6-8.4 3.6-13 4.1-6.7 0.7-15.2 1.3-21.8-1.2-4.9-1.9-8.8-5.3-10.5-11.4-1.6-5.7-1.4-11.4-0.3-17 1.5-8 4.7-15.8 6.5-23.4 1.1-4.5 1.6-9.1 1.8-13.7zm3-25.2c2.6 0.5 5.9 0.8 9.3 0.6 3.1-0.3 6.2-0.9 8.5-2.1 1.1-0.7 0.2-1.5-0.6-2.4-1.5-1.5-3.7-2.8-5-3.1q-0.4-0.1-0.8-0.3c-0.4 0.3-1.1 0.4-1.7 0.3-2.2-0.5-4.6-0.5-7-0.2-2.3 0.4-4.6 1.1-6.6 2.3-1.3 0.8-1.6 1.6-1 2.3 1.1 1.3 3.1 2.3 4.9 2.6zm-6.7 63.1c-0.9 5-1.1 10 0.2 14.9 1.3 4.4 4.1 6.9 7.7 8.3 5.9 2.2 13.6 1.5 19.6 0.9 3.2-0.3 6.5-0.9 9.2-2.3 2.5-1.3 4.4-3.3 5.2-6.4 1.6-6.2 1.1-12.4-0.5-18.5-2.5-9.5-7.5-18.7-11-27.3-2-4.8-3.5-9.8-4.6-14.9-0.9-4.6-1.6-9.2-2.2-13.9-1.6 0.6-3.4 0.9-5.2 1.2-3.7 0.4-7.6 0.3-10.8-0.1q0.5 5.1 0.8 10.3l6.7-0.3c1.3-0.1 2.4 0.9 2.5 2.2 0.1 1.3-0.9 2.5-2.2 2.5l-6.9 0.3q0.1 2.7 0 5.4-0.2 3.2-0.5 6.2l6.2-0.3c1.3-0.1 2.5 0.8 2.6 2.1 0.1 1.3-0.9 2.5-2.2 2.6l-7.3 0.4q0 0 0 0-0.4 1.8-0.8 3.6c-1.8 7.5-5 15.3-6.5 23.1zm-59 124.9h0.7q0-0.1 0-0.2l-1.4-53.9c0-3.8-0.6-10.2 0.2-15.4 0.4-2.8 1.2-5.3 2.5-7.1 1.3-1.8 3.3-3.2 5.6-4.1 2.9-1.3 6.4-1.8 9.1-2 4.7-0.3 9.6-0.3 14.5-0.2 7.2 0.3 14.5 0.9 21.5 1.3l47.3 2.4c3.5 0.1 8.8-0.4 13.1 0.6 2.4 0.5 4.5 1.4 6 3 2.5 2.4 3.8 5.8 4.5 9.6 0.8 4.8 0.4 10.2 0.4 14.3l-0.4 49.6q1.3 0.2 2.2 0.7c0.5 0.2 1.1 0.8 1.5 2 0.4 1.7 0.4 5.7 0.5 6.6 0.3 3.9 1.3 8.4 0.6 12.2-0.6 3.1-2.1 5.8-5.5 7.7-2.4 1.3-5 2.1-7.7 2.6-3.7 0.6-7.7 0.6-11.4 0.5l-24.8-0.1-52.7 0.1c-4.5 0.1-11.1 0.9-16.5-0.2-2.9-0.5-5.5-1.6-7.3-3.4-2.6-2.4-4-5.8-4.7-9.4-0.8-4.7-0.6-10-0.7-14.1 0-0.7 0.3-1.4 0.8-1.8 0.4-0.8 1.2-1.3 2.1-1.3zm4-54.1l1.4 53.9 6.4-0.1-2.1-47.3c0-3.4-0.6-8.5-0.2-12.7 0.3-2.4 0.9-4.5 2-6.1 1.4-2.1 3.8-3.6 6.6-4.5 5.2-1.7 12.1-1.6 15.9-1.6l52.3 1.6c3.4 0.1 9.7-0.1 14.5 1.3 2.8 0.7 5 2 6.4 3.8 1.9 2.5 2.9 5.7 3.4 9.1 0.7 4.4 0.3 9.3 0.3 13.2 0 8.6-0.1 17.2-0.1 25.7 0 5.3 0.1 10.7 0.3 15.9l3.3 0.1c1.1-0.1 2.8-0.3 4.5-0.4l0.4-49.5c0-3.9 0.4-9-0.4-13.5-0.5-2.8-1.3-5.3-3.1-7.1-1.3-1.2-3.2-1.7-5.3-2-3.7-0.5-7.8-0.1-10.7-0.2l-47.4-2.4c-6.9-0.4-14.2-1-21.3-1.2-4.8-0.2-9.5-0.2-14 0.1-2 0.1-4.3 0.5-6.5 1.2-1.9 0.6-3.7 1.5-4.8 3-1.2 1.6-1.7 4.2-1.9 7-0.3 4.5 0.1 9.5 0.1 12.7zm84 52.2h18.4c-0.3-5.2-0.3-10.6-0.4-15.9 0-8.5 0.2-17.1 0.2-25.7 0-3.7 0.3-8.3-0.3-12.6-0.3-2.5-1-4.9-2.5-6.9-1.1-1.4-3.2-2.1-5.6-2.5-4.1-0.7-8.9-0.6-11.7-0.7l-52.1-1.6c-3 0-8.2-0.1-12.5 0.9-2.6 0.5-4.9 1.3-6.1 3.1-0.9 1.4-1.2 3.5-1.3 5.6-0.2 3.7 0.3 7.8 0.3 10.6l2.1 47.1 38-1zm-33.5 5.1l-7.1 0.2c0 1.5 0 3 0.3 4.5 0.2 1.1 0.4 2.1 1.1 2.8 0.6 0.6 1.5 0.9 2.3 1.1 1.2 0.3 2.4 0.4 3.5 0.5 3 0.4 6 0.3 9.1 0.1 3-0.2 6.1-0.7 9.2-1.2l4.8-0.9c0.8-0.8 1.1-2 1.3-3.2 0.3-1.4 0.3-2.9 0.3-4.2zm-52.6 1.5c0 3.5-0.1 7.8 0.6 11.6 0.5 2.7 1.4 5.1 3.3 6.9 1.7 1.6 4.2 2.2 7 2.5 4.6 0.5 9.8-0.2 13.4-0.3l52.9-0.1 24.7 0.2c3.5 0 7.2 0.1 10.7-0.5 2.1-0.3 4.2-1 6.2-2 1.9-1.1 2.7-2.7 3.1-4.5 0.6-3.4-0.4-7.4-0.7-10.9 0-0.6-0.2-3.7-0.3-5.1-0.6-0.1-1.3-0.1-2.1 0-2.2 0-4.7 0.4-6.2 0.4l-26.6-0.1-3.8 0.1c0 1.8-0.1 4.1-0.6 6.2-0.5 1.8-1.3 3.5-2.5 4.6-0.6 0.6-1.6 1.1-2.6 1.4-1.5 0.4-3.4 0.5-4.7 0.7-3.2 0.6-6.4 1.1-9.7 1.3-3.3 0.3-6.6 0.3-9.9-0.1-1.5-0.1-3.3-0.4-5-0.9-1.3-0.4-2.6-1.1-3.5-2-1.1-1.1-1.8-2.5-2.2-4.1-0.6-2-0.6-4.4-0.6-6.4zm103.8 183.1c-2.2-7.6-2.4-16.1-1.1-24.5 1.3-8.2 4.1-16.3 7.8-23.1 3.1-5.7 7.3-10.9 10.7-16.6 1.4-2.3 2.6-4.7 3.5-7.2 0.7-2.1 1.1-4.2 1.2-6.3 0.2-3.5-0.2-6.9-0.4-10.5-0.2-4.4-0.4-8.9-0.8-13.4-0.2-3-0.6-5.9-1.1-8.7-0.1-0.7 0.1-1.4 0.5-2q0.2-0.5 0.6-0.8c3.5-3.2 7.5-5.5 11.7-6.8 4.4-1.3 9-1.5 13.6-0.6q2.1 0.4 3.9 1.1 1.9 0.8 3.6 1.9c0.1 0.1 1.3 0.8 1.7 1.1 0.6 0.4 0.9 0.9 1 1.4 1.3-0.2 2.5 0.6 2.7 1.8l0.6 11.2c0.2 4.1 0.6 8.5 1.6 12.7 0.7 2.7 1.6 5.3 3 7.6 1.5 2.7 3.5 5.1 5.6 7.2 5.2 5.5 11.6 10 16.5 15.8 4.4 5.1 7.3 10.6 9.3 16.4 2 5.7 3 11.7 3.7 18.2 0.4 4.5 0.7 9.1 0.5 13.7-0.2 3.1-0.6 6.2-1.4 9.2-2.3 8.8-7.3 15-13.8 19.5-6.3 4.4-14 7-22 8.5-11.5 2.2-25.3 3-37.2-0.6-8.2-2.6-15.5-7.2-20.5-14.9q-1.7-2.6-3-5.5-1.2-2.8-2-5.8zm26.3-111.5c2.9 1.2 6.2 2 9.5 2.3 3.9 0.4 7.8 0.2 10.9-1.4 0.9-0.4 2.2-1.2 3.3-2.1q0.6-0.4 1-0.9-1.3-0.8-2.7-1.4-1.4-0.6-3-0.9c-3.9-0.7-7.7-0.5-11.3 0.6-2.7 0.8-5.3 2.1-7.7 3.8zm-14.9 65.2c11.5 4.1 24.4 5.4 36.8 3.8 12.4-1.6 24.3-6.2 33.9-13.9-4.7-5.4-10.7-9.6-15.6-14.8-2.4-2.4-4.6-5.1-6.3-8.1-1.6-2.8-2.7-5.8-3.5-8.9-1.1-4.5-1.5-9.2-1.7-13.6l-0.4-8.7q-0.4 0.4-0.8 0.8c-1.6 1.4-3.6 2.7-5 3.4-3.1 1.5-6.9 2.1-10.8 2-4.4-0.1-9-1.1-12.9-2.6q0.3 2.4 0.5 4.9c0.3 2.8 0.4 5.6 0.6 8.5l5.9-0.3c1.3 0 2.3 1 2.4 2.3 0 1.3-1 2.4-2.4 2.4l-5.7 0.3q0 0.2 0 0.3c0.3 3.8 0.6 7.4 0.4 11.1q-0.1 1.8-0.4 3.6l7.5 0.2c1.3 0.1 2.3 1.2 2.2 2.5 0 1.3-1.1 2.3-2.4 2.3l-8-0.3q-0.3 0-0.6-0.1c-1 2.6-2.2 5-3.6 7.4-3.2 5.3-7.1 10.2-10.1 15.5zm-6.9 45q0.8 2.7 1.9 5.2 1 2.5 2.5 4.8c4.5 6.7 10.8 10.7 18 12.9 11.1 3.5 24.1 2.6 34.9 0.5 7.3-1.3 14.4-3.7 20.2-7.7 5.6-3.8 10-9.2 11.9-16.7 0.9-3.5 1.3-7 1.3-10.5 0.1-3.6-0.2-7.3-0.5-10.9-0.7-6-1.6-11.7-3.5-17.1-1.4-4.2-3.4-8.2-6.1-11.9-10.3 8.2-23.1 13.2-36.3 14.9-13.4 1.7-27.3 0.3-39.6-4.2-2.7 5.5-4.6 11.8-5.6 18.2-1.2 7.7-1.1 15.5 0.9 22.5z"/></svg>