<svg version="1.2" xmlns="http://www.w3.org/2000/svg" viewBox="0 0 217 238" width="217" height="238"><style>.a{fill:#ee9745}</style><path fill-rule="evenodd" class="a" d="m56 219.4c0.2 0.2 1.1 1.6 1.4 2.2 0.3 0.7 0.1 1.3 0 1.6-0.2 0.4-0.7 0.9-1.5 1.4-1.4 0.9-3.8 1.8-4.5 2.1l-13.4 7.7c-0.4 0.2-3.7 2.3-5.1 2.7-1.1 0.4-1.8 0.1-2.1-0.2-0.7-0.5-1.3-1.4-1.9-2.4-0.9-1.7-1.7-3.9-2.3-5.2-0.1-0.3-0.9-1.6-1.1-2.2-0.2-0.6-0.1-1 0-1.3 0.2-0.3 0.5-0.8 1.1-1.1 0.7-0.4 1.8-0.8 2.2-1 1.2-0.7 2.6-1.5 3.8-2.3q0.8-0.6 1.5-1.1l-1.2-2.4-5.5-11.7-10.8-18.1-1.8-3.4-3.2 6.4c-0.3 0.6-0.8 0.9-1.5 0.9-0.4 0.2-0.9 0.2-1.3 0l-6.2-3.2c-0.2-0.1-1.4-0.9-1.7-1.3-0.8-0.7-0.7-1.5-0.5-1.8l4.5-12.3 2.8-7.3c0.1-0.2 0.7-1.8 1.1-2.3 0.4-0.5 0.9-0.7 1.2-0.8 0.4 0 0.9 0 1.5 0.1 0.7 0.1 1.5 0.4 2.1 0.5l5.2 1.3c0.2 0.1 0.6 0.2 0.9 0.6 0.4 0.5 0.9 1.6 1 1.9l3.3 5.6c3.7 6.4 7.6 12.8 11.1 19.4 2.4 4.4 4.7 8.9 6.7 13.5l2.8 6.6 0.3 0.8c1-0.6 2.4-1.6 3.4-2.1 1.2-0.5 2.2-0.4 2.8 0 0.8 0.4 1.6 1.4 2.2 2.5 1.1 1.9 2.1 4.5 2.7 5.7zm-2 2.7c-0.3-0.5-0.7-1.1-0.7-1.2-0.6-1-1.4-3.1-2.3-4.9-0.4-0.7-0.8-1.5-1.2-1.9-0.9 0.5-4.6 2.7-5.7 2.8-0.1 0-1.1-0.1-1.6-1.1-0.3-0.6-0.7-1.9-0.8-2.1l-2.8-6.6c-2-4.4-4.2-8.8-6.6-13.2-3.5-6.6-7.3-13-11-19.4l-3.3-5.5c-0.1-0.2-0.4-0.8-0.6-1.2l-4.4-1.1-1.9-0.4-0.6 1.1-2.6 6.9-4.2 11.4 0.6 0.4 5 2.6 2.9-5.9c0.1-0.2 0.6-1.5 0.8-2 0.5-1 1.4-1.1 1.6-1.1 0.3 0 0.8 0.2 1.3 0.7 0.3 0.4 0.9 1.5 1 1.7l2.5 4.5 10.8 18.2 5.6 11.8c0.1 0.2 1.2 2.3 1.5 3.2 0.4 1.1-0.1 1.9-0.3 2-0.7 0.8-1.7 1.5-2.6 2.2-1.3 0.9-2.8 1.7-4.1 2.4-0.2 0.1-0.8 0.4-1.3 0.7l0.4 0.8c0.6 1.1 1.2 2.9 2 4.5 0.3 0.6 0.5 1.1 0.9 1.5l4.2-2.3 13.5-7.7zm46.8-28.8c0.1 0.2 0.8 1.4 1 2 0.4 0.9-0.1 1.6-0.3 1.8-0.9 1-2.2 2-3.8 2.9-2.9 1.8-6.7 3.3-9 4.7l-14.3 7.7c-0.4 0.2-2.9 1.9-4 2.4-0.9 0.4-1.7 0.2-1.9 0.1-0.3-0.1-0.6-0.4-1-0.9-0.4-0.6-0.8-1.7-1-2.1-0.9-1.4-2.6-3.4-3.7-5.3-0.6-1.1-1.1-2.2-1.2-3.2-0.1-1 0-2.2 0.2-3.5 0.4-2.4 1.3-5 1.4-7 0.4-4.9 0.6-10.1 0.5-15.1-0.2-3.4-0.5-6.8-1.1-10l-1.1-3.7c-1.3-2.9-2.9-3.8-4.7-3.4-3.2 0.7-6.4 4.6-8.1 7.8-0.3 0.6-1 0.9-1.7 0.7l-5.7-0.5c-0.2 0-1.1 0-1.5 0-1.3-0.1-1.6-1.3-1.7-1.4-0.1-0.6 0-1.5 0.2-2.5 0.4-1.5 1.1-3.4 1.4-4.3 1.5-4.7 4.7-9.8 9-12.6 3-2.1 6.6-3.1 10.6-2.1 5.7 1.4 10.2 4.9 13.5 9.4 4.8 6.6 7.1 15.5 7.4 23.2q0.1 2.8 0 5.6c-0.1 2.7-0.4 5.5-0.6 8.3l-0.2 1.3 1.8-0.9 9.7-5.3c0.7-0.3 1.7-1 2.6-1.4 0.7-0.3 1.4-0.4 1.9-0.4 0.3 0 0.8 0.1 1.2 0.6 0.4 0.4 1 1.5 1.1 1.7zm-2.3 2.4l-0.5-0.9-2.9-5.1-0.4-0.7-2.3 1.2-9.8 5.3c-0.5 0.3-2.3 1.4-3.4 1.9-1 0.4-1.7 0.4-2.1 0.3-0.2-0.1-1.1-0.7-1.1-2 0.1-1 0.5-3.5 0.5-3.7 0.2-2.7 0.4-5.4 0.5-8.1q0.1-2.7 0-5.4c-0.2-5.9-1.7-12.6-4.7-18.2-3-5.5-7.5-9.9-13.8-11.4-3.8-0.9-7.1 0.5-9.8 3-2.8 2.5-4.9 6.2-6 9.6-0.2 0.8-0.8 2.2-1.2 3.5q-0.1 0.3-0.1 0.6h0.2l4.9 0.5c2.2-3.7 6-7.6 9.6-8.5 3-0.7 6.1 0.4 8.3 5.2l1.3 4.5c0.6 3.3 1 6.8 1.1 10.4 0.2 5.2 0 10.5-0.4 15.5-0.2 2.1-1 4.8-1.4 7.2-0.2 1-0.3 1.9-0.2 2.7 0 0.6 0.4 1.3 0.8 1.9 1 1.9 2.7 3.9 3.6 5.3 0.1 0.2 0.4 0.8 0.6 1.2 1.1-0.6 2.8-1.7 3.1-1.8l14.2-7.7c2.3-1.4 6.1-2.9 9-4.7 0.9-0.5 1.7-1 2.4-1.6zm51.4-29.1c0.1 7.4-3.3 14.7-10.6 18.9-3.1 1.9-6.7 2.9-10.2 2.9-3.6 0-7.2-0.9-10.4-2.9q-1.3-0.8-2.5-1.9-1.2-1.1-2.1-2.4c-0.2-0.2-1-1.2-1.1-1.7-0.3-0.6-0.2-1.1 0-1.4 0.3-0.7 0.9-1.5 1.6-2.3 1.1-1.3 2.7-2.6 3.6-3.8 0.2-0.3 0.8-1.2 1.2-1.7 0.4-0.4 0.8-0.6 1.1-0.7 0.3-0.1 0.8-0.2 1.4 0.1 0.3 0.2 1.1 0.9 1.3 1l3.6 2c2.2 0.8 4.8 0.5 6.8-0.6 2-1.1 3.4-3 3.2-5.5-0.1-2.5-1.5-5-3.4-7.1-2-2.1-4.4-3.8-6.8-4.3q-1.5-0.4-3.1-0.4-1.5-0.1-3 0.3l-2.2 0.5c-0.3 0.1-0.8 0.4-1.1 0.4-0.4 0.1-0.8-0.1-1.1-0.2-0.4-0.3-0.7-0.6-0.8-1.3q-0.2-2.3-0.2-4.7c0-3.6 0.3-7.3 0.4-10.7v-4.8-0.3q-0.8 0.3-1.5 0.7c-2.7 1.3-5.5 3.1-8.1 4.3-0.4 0.1-2.2 1.2-3.4 1.6-1 0.4-1.8 0.3-2.1 0.2-0.3-0.1-0.7-0.4-1-0.9-0.3-0.5-0.7-1.4-0.9-1.7l-3.6-5.9c-0.4-0.6-0.3-1.4 0.1-1.9 0.1-0.6 0.4-1 1-1.3l20.8-9.3c1.3-0.6 3.5-2 5.5-2.8 1.2-0.5 2.4-0.7 3.3-0.6 0.2 0 1.2 0.3 1.4 1.4 0 0.4 0.1 1.3 0.1 1.4l0.4 4.9 0.9 13.7 0.5 4c0.9 0.1 2.9 0.3 3.3 0.4 1.5 0.5 3.1 1.1 4.6 1.8 1.4 0.8 2.8 1.8 4 2.8 5.9 5.1 9.1 12.6 9.1 19.8zm-11.1-17.4c-1.1-0.9-2.3-1.7-3.5-2.4-1.3-0.6-2.6-1.2-3.9-1.5-0.5-0.2-2.8-0.3-3.8-0.6-0.6-0.1-1-0.5-1.2-0.7-0.4-0.5-0.6-1.3-0.8-2.1-0.3-1.3-0.3-2.9-0.4-3.8l-0.9-13.8-0.3-4.6q-0.6 0.2-1.3 0.6c-1.7 0.8-3.6 1.9-4.6 2.4l-20 8.9 3.1 5c0.1 0.1 0.3 0.5 0.5 0.9 0.9-0.5 2.6-1.3 3-1.4 2.5-1.2 5.2-2.9 7.9-4.3 1.3-0.6 2.7-1.1 4-1.5-0.1 0.1 1.9 1.5 1.9 1.5 0 0 0 0.1 0 0.2 0.1 0.6 0.1 2.1 0.2 2.2l-0.1 5c0 3.4-0.3 7-0.4 10.6q0 1.3 0.1 2.5l1.6-0.3q1.8-0.4 3.7-0.4 1.9 0.1 3.7 0.5c2.9 0.7 6 2.7 8.4 5.3 2.4 2.6 4.1 5.9 4.3 9 0.2 3.8-1.9 6.7-4.8 8.4-2.8 1.6-6.5 2-9.5 0.9l-4.3-2.4-0.2-0.1-0.5 0.7-4.4 5 0.3 0.4q0.8 1.1 1.7 2 1 0.9 2.1 1.6c2.6 1.6 5.6 2.4 8.6 2.3 3 0 6.1-0.8 8.7-2.4 6.3-3.6 9.1-9.8 9.1-16.2 0-6.4-2.9-12.9-8-17.4zm-24.4-78.6c-1.5 2.6-3.4 4.8-6 6.9-0.6 0.6-2 2.1-3.1 2.9-0.6 0.5-1.3 0.7-1.7 0.7-0.6 0-1.4-0.3-2.1-1-1-1-2.2-3.2-2.6-3.7-1.1-2-2-4.1-2.6-6.2-1-3.2-1.6-6.5-2.1-9.6-0.1-0.5-0.2-2.3-0.4-3.6-1.6 0.7-4 1.9-4.5 2-2.4 0.7-4.8 1-7.2 0.9-2.4 0-4.7-0.4-7-0.9-1.7-0.4-3.4-0.9-5-1.6-1.6-0.7-3.2-1.5-4.6-2.3-0.2-0.1-1-0.7-0.8-1.8 0.1-0.5 0.5-1.7 0.6-1.8q0.4-1.3 1.1-2.6c0.7-1.1 1.5-2.2 2.3-3.3 2.5-3.1 5.6-5.8 8.9-8.1 2.8-2 5.7-3.7 8.7-5.1-1.4-3.6-2.5-7.4-3.2-11.4-0.8-4.2-1-8.5-0.4-12.6 0.2-1.2 0.4-3.2 0.9-4.9 0.2-1 0.7-1.8 1.1-2.4 0.5-0.5 1.7-0.9 3.3-0.3 2.1 0.7 5.5 2.6 6.2 2.9 3.2 1.7 5.9 3.6 8.4 5.6 3.5 2.8 6.6 5.9 10 9l1-0.8 4.7-3.3c2.5-1.5 5.2-2.6 7.9-3.4 2.7-0.8 5.5-1.2 8.4-1.4 0.9-0.1 2.5-0.2 3.8-0.1 0.9 0.1 1.6 0.3 2.2 0.6 0.9 0.6 1.5 2 1.6 3.8 0.1 2.5-0.5 5.8-0.7 6.9q-0.4 1.9-1 3.7-0.7 1.8-1.6 3.5-1 2-2.3 3.7-1.3 1.8-2.8 3.4c-0.3 0.3-1.1 1-1.7 1.5 1.3 1.1 3.3 2.8 3.6 3 2.4 2.5 4.9 5.2 6.9 8.2 1.4 2.1 2.5 4.4 3.2 6.7 0.2 0.5 0.9 2.9 1.1 4.4 0.1 1.1-0.2 1.9-0.6 2.3-0.5 0.6-1.7 1-3.1 1.1-2 0.2-4.5 0-5.5-0.1q-4.3-0.1-8.4-1.3-4-1.2-7.8-3.2l-3.6-2.4-0.5 6.9c-0.6 3.3-1.5 6.1-3 8.6zm-2.7-1.5c1.3-2.3 2.1-4.7 2.6-7.6l0.4-6.3-0.2-2c-0.1-0.5-0.3-1.7-0.1-2 0.3-0.5 0.8-1.1 1.9-0.8 0.9 0.3 1.7 0.7 2.5 1.3 1.5 0.9 2.9 2.3 4.3 3q3.4 1.9 7.1 3 3.7 1 7.6 1.2c0.7 0 2.2 0.1 3.7 0.2 0.9 0 1.7 0 2.2-0.1-0.2-0.9-0.8-3.4-0.9-3.8-0.6-2-1.6-4-2.8-5.8-1.9-2.9-4.3-5.5-6.6-7.8-0.3-0.3-3.2-2.6-4.2-3.6-0.9-0.9-0.9-1.9-0.8-2.1 0.1-0.3 0.3-0.8 0.8-1.3 0.7-0.6 1.9-1.4 2.3-1.8q1.3-1.5 2.5-3.1 1.2-1.6 2.1-3.4 0.9-1.5 1.4-3.1 0.6-1.6 0.9-3.2c0.2-0.8 0.5-2.6 0.6-4.4 0.1-0.9 0.1-1.8 0-2.5-0.1-0.2 0-0.4-0.1-0.5h-4.1c-2.6 0.1-5.2 0.5-7.7 1.2-2.5 0.7-4.9 1.7-7.2 3.1l-4.3 3c-0.1 0.1-1.3 1.1-1.8 1.5-1.1 1-2.3 0.2-2.3 0.2-3.8-3.4-7.1-6.8-10.9-9.8-2.3-1.9-4.9-3.7-7.8-5.3-0.6-0.3-4.8-2.2-6-2.8-0.2 0.4-0.3 0.8-0.4 1.3-0.3 1.4-0.4 2.9-0.6 3.9-0.5 3.7-0.3 7.7 0.4 11.6 0.7 3.9 1.9 7.8 3.2 11.2q0.4 0.3 0.6 0.6c0.3 0.8 0 1.8-0.8 2.1-3.3 1.6-6.7 3.5-9.8 5.7-3.1 2.1-5.9 4.6-8.2 7.5-0.6 0.8-1.2 1.6-1.7 2.4-0.5 0.8-1 1.6-1.3 2.5l-0.1 0.5q1.6 0.8 3.2 1.5c1.5 0.6 3 1.1 4.5 1.4 2.1 0.5 4.2 0.8 6.4 0.9 2.1 0 4.1-0.2 6.2-0.8 0.6-0.2 4-1.9 5.5-2.4 0.9-0.4 1.6-0.2 1.8-0.1 0.3 0.1 0.9 0.6 1.1 1.6 0.3 1.2 0.4 4.3 0.5 5 0.5 3 1 6.1 2 9.1 0.6 2 1.3 3.8 2.3 5.6 0.3 0.3 1.5 2 2 2.8 0.8-0.6 2.3-2.1 2.8-2.5 2.2-1.9 4-3.8 5.3-6zm68.4 86.4l-0.5-7.3c-0.4-0.6-0.3-1.5 0.2-2l11.4-10.3 0.2-0.2q-0.1-0.1-0.1-0.1l-6.4-7.6q-0.1-0.2-0.2-0.4c-3.3 2.3-6.9 4.1-10.6 5.4-6.3 2.2-13.1 2.7-19.5 0.5-7-2.3-13.1-6.9-17.8-12.7-4.7-5.7-8-12.6-9.4-19.7-0.6-2.8-0.9-5.7-1-8.7-0.1-3 0.1-6 0.6-8.8 0.1-0.5 0.4-2.9 0.7-4.2 0.4-1.1 1-1.7 1.4-1.9 0.8-0.3 2.1-0.3 3.5-0.1 2.1 0.4 4.7 1.3 5.9 1.5q0.4 0.1 0.7 0.3 0.8-1.3 1.8-2.6c1.5-2 3.2-3.9 5-5.7 0.3-0.3 0.7-0.4 1.1-0.4q0.1-0.4 0.5-0.7c7.2-5.6 16.2-7.5 24.4-5.8 8.2 1.6 15.5 6.9 19.3 15.8 3 7 3.4 14.8 1.5 22.1q0 0 0 0.1l4.5 1.6c0.1 0.1 1.1 0.4 1.5 0.5 1.1 0.5 1.2 1.4 1.2 1.6 0 2.5-0.9 5.3-2.2 7.9-1.9 3.7-4.8 7.1-7.2 9.4q-1.6 1.4-3.4 2.8 0.1 0.1 0.2 0.2l6.2 7.5q0.1 0.1 0.2 0.2l7.9-6.9c0.1-0.1 1.9-2.1 2.7-2.7 0.9-0.8 1.8-0.6 2-0.5l4.6 2.2c0.6 0.2 2.6 0.8 3.7 1.4 0.8 0.4 1.3 0.9 1.5 1.3 0.1 0.2 0.4 1.1-0.4 2-0.5 0.7-2.1 2.2-2.4 2.4l-9.2 8.6-16.4 13.7c-0.3 0.3-3.2 2.9-4.5 3.7-1.1 0.8-2.2 0.5-2.4 0.3-0.2-0.1-0.6-0.5-0.7-1.2-0.1-0.6-0.1-2.2-0.1-2.5zm8.3-74.5c-1.3-3.2-3.3-5.8-5.5-8-1.9 4.3-2.3 9-1.1 13.2 1.2 4.3 4.1 7.9 8.9 9.7 0.4-5-0.2-10.1-2.3-14.9zm-17.1-13.9q-1.5-0.4-3-0.5c0.2 1.6 0.2 3.1 0 4.5-0.3 3.5-1.7 6.6-2.3 10.5-0.4 2.4 1.4 4.7 1.8 7 0.1 0.9 0.1 1.7 0 2.6-0.4 2-1.6 3.1-3.1 3.7-2.3 1-6 0.3-8.2 0.9-1.2 0.3-2.5 1-3.8 1.3q-1.2 0.2-2.3 0.1c-0.8-0.1-1.6-0.4-2.3-0.9-1.2-0.8-2.3-2.1-3.3-2.8q-1.4-1-2.9-1.5-1.6-0.6-3.3-0.7 0 2 0.4 4.1c1 5.7 4.1 11.1 7.4 15.5 2.3 3.1 5.4 5.8 8.9 7.8 0.3-1.2 0.6-2.5 1.1-3.6 0.6-1.6 1.5-3.1 2.8-4.3 1.5-1.4 3.3-2.4 4.8-3.7 0.5-0.4 1-0.9 1.4-1.5 0.9-1.5 1.5-4.1 2.9-5.6 0.9-1 2-1.5 3.5-1.4 1.1 0.1 2 0.4 2.8 0.9 1.4 0.9 2.4 2.4 3.9 3.4l8.8 4.8q1.6-3.2 2.5-6.6 0.2-1.1 0.4-2.1-0.2 0-0.4-0.1c-6-2.1-9.6-6.6-11.1-11.8-1.4-5.1-0.8-11 1.6-16.1q0 0 0.1-0.1c-2.7-1.9-5.8-3.2-9.1-3.8zm8.2 40.2q-1.5-0.8-2.9-1.8c-1.2-0.9-2.1-2.1-3.2-3-0.5-0.4-1.1-0.7-1.8-0.8-0.7 0-1 0.4-1.4 0.9-0.9 1.5-1.4 3.5-2.2 4.7-0.5 0.9-1.2 1.6-2 2.2-1.4 1.3-3.2 2.2-4.6 3.5-1 1-1.6 2.1-2.1 3.3-0.5 1.2-0.8 2.6-1 3.9q1.7 0.8 3.5 1.3c5.9 1.7 12.2 1.1 17.3-3.2 2.7-2.3 4.9-4.9 6.7-7.9-2-1.1-4.2-2-6.3-3.1zm-39.5-22.8q-0.8 1.8-1.1 3.7 2 0.1 4 0.8 2 0.7 3.7 1.9c0.9 0.7 1.8 1.7 2.8 2.5 0.5 0.3 0.9 0.6 1.4 0.7 0.5 0.1 1.1-0.1 1.6-0.2 1.1-0.3 2.2-0.9 3.3-1.2 1.9-0.4 4.8 0 7-0.5 1-0.1 1.8-0.5 2-1.6 0.4-2.4-1.4-4.7-1.8-7q-0.2-1.3 0-2.5c0.5-3.3 1.6-6 2.1-9 0.3-1.7 0.5-3.4 0.1-5.5q0 0 0 0c-5.4 0.2-10.9 2.1-15.6 5.7q-0.4 0.3-0.9 0.3-0.1 0.3-0.4 0.6c-1.7 1.6-3.3 3.4-4.7 5.3-1.4 1.8-2.6 3.8-3.5 6zm48.4 36.2c2.3-2.1 4.8-5.2 6.6-8.6 0.9-1.7 1.5-3.6 1.7-5.3l-0.5-0.2-4.4-1.6c-2.1 6-5.7 11.5-10.6 15.7-6 5.1-13.4 5.8-20.3 3.8-6.7-1.9-13-6.3-17-11.7-3.6-4.7-6.9-10.7-8-16.8-0.8-4.3-0.6-8.7 1.2-12.8q0.3-0.6 0.6-1.2c-1.2-0.3-3.1-0.9-4.9-1.3-0.7-0.2-1.4-0.4-2-0.3l-0.7 3.8c-0.5 2.6-0.6 5.3-0.6 8.1 0.1 2.8 0.5 5.5 1 8.2 1.3 6.5 4.4 13 8.7 18.3 4.3 5.4 9.9 9.6 16.4 11.7 5.8 1.9 11.8 1.5 17.5-0.5 5.7-1.9 11-5.4 15.3-9.3zm-5.2 34.3c1.2-1 2.4-2.1 2.6-2.2l16.3-13.6 9.1-8.5 1-1c-0.9-0.4-2.1-0.9-2.5-1.1l-3.7-1.7c-0.7 0.7-2.1 2.1-2.2 2.3l-10.5 9-10.6 9.6z"/></svg>