<svg version="1.2" xmlns="http://www.w3.org/2000/svg" viewBox="0 0 505 602" width="505" height="602"><style>.a{fill:#ee9745}</style><path fill-rule="evenodd" class="a" d="m105.6 411.8c0.7 1.5 0.2 2.5-0.5 3.1-0.4 0.3-0.9 0.7-1.7 0.7-0.7 0.1-2.2-0.3-2.9-0.3l-5.5 0.2-17.1 0.8-20.6-0.1c-0.6 0-4.1-0.1-5.5-0.3-2.1-0.3-2.6-1.9-2.6-2.2l-2.6-22.9c-0.2-1.2 0.4-2.2 1.4-2.6 0.6-1.1 2.1-1.5 3.2-0.9 7.2 3.9 14.3 7.8 21.6 11.2 4.9 2.3 9.8 4.3 15 5.9l12.6 4.5c0.7 0.3 2.5 0.8 3.5 1.3 0.9 0.5 1.4 1.1 1.7 1.6zm-13.6-0.9l-5.6-2c-5.4-1.7-10.6-3.8-15.6-6.1-6.5-3-12.8-6.4-19.3-10l2.1 18.5 4 0.2 20.1 0.1zm105.1 25.6c-0.3 0.4-1 1-2.2 1.2-1.8 0.4-6.2 0.1-7 0.2l-24.3 2.4c-16.9 2.1-34 3.9-51.3 5.2-17.2 1.4-34.5 2.2-51.5 2.5h-28.4c-0.9-0.1-4.8 0.3-7.1 0.2-1.8-0.1-3-0.8-3.4-1.3-0.4-0.6-0.8-1.4-0.9-2.5-0.2-1.9 0-4.8 0-6l-0.7-20c-0.5-17.5-1.6-35-2.1-52.4-0.2-7.6-0.4-15.1-0.5-22.6 0-0.8 0.5-1.6 1.2-2 0.8-0.4 1.7-0.5 2.5-0.1v-0.1l59 32.4 83.8 42.5 21.4 11.1c0.6 0.3 7 3.7 9.6 5.1 2.5 1.3 2 4.1 1.9 4.2zm-10.8-3.4l-2.9-1.5-21.4-11.1-83.8-42.4-55.6-30.5q0 9.1 0.3 18.2c0.6 17.5 1.6 35 2.2 52.5l0.7 19.9-0.1 5.2c1.7-0.1 6-0.2 6.7-0.2h6.8l-1.2-12.3c-0.1-1.3 0.8-2.5 2.1-2.6 1.3-0.1 2.5 0.8 2.6 2.1l1.3 12.8h16.7q5.5-0.1 11-0.3l-0.8-11.7c0-1.3 1-2.4 2.3-2.4 1.3 0 2.4 1 2.4 2.3l0.9 11.7q13.4-0.6 26.8-1.5l-1.1-10.9c-0.1-1.3 0.9-2.4 2.2-2.5 1.3-0.1 2.4 0.9 2.5 2.2l1.1 10.9q2-0.1 4-0.3 10.5-0.8 21-1.9l-1.7-9.2c-0.2-1.3 0.6-2.5 1.9-2.8 1.3-0.2 2.5 0.6 2.7 1.9l1.8 9.7q11.5-1.2 22.7-2.6l-1-7.5c-0.1-1.3 0.8-2.5 2.1-2.7 1.3-0.2 2.4 0.7 2.6 2l1 7.6zm-35.1-157.7c-0.9 9.3-4.6 18.8-7.3 26.3l-9.5 23.8-3.4 7.9 3.7 5.8c2 4.9 2.2 9.6 0.7 13.2-1.6 3.8-5.1 6.7-11.3 7.5-3.4 0.4-6.8 0.1-10.1-0.7-3.6-1-7.2-2.5-10.6-4.1q-0.1 0.2-0.3 0.4c-4.2 4.2-9.9 6.6-15.5 6.6-5.7 0-11.2-2.5-15-8.2-1.5-2.3-2.5-4.8-3.1-7.4-0.9-3.7-1-7.6-0.7-11.4q0-0.2 0-0.4-2.4-1.6-4.8-3.3c-1.8-1.3-4.1-2.7-6-4.3-1.5-1.3-2.8-2.8-3.6-4.5-1.7-3.7-1.2-7 0.6-9.9 2.4-3.8 7.2-6.5 11.4-7.3q0.2 0 0.5 0c4.8-11.1 9.7-23.9 16.4-35.1 4.6-8 10.1-15.2 17-20.6 6.8-5.5 16-7.8 24.7-6.8q0-0.2 0.1-0.3c1.8-4.1 7.5-10.4 12.8-12.2 4.5-1.5 8.9-0.5 11.2 6.1 1 2.7 1.1 5.5 0.6 8.3-0.5 3.5-1.8 6.9-3.2 10q0.7 0.9 1.3 1.9c3.3 5.5 4.1 12 3.4 18.7zm-21.4-31.6c4.9 1.2 9.5 3.6 13.3 7.1 0.8-2.2 1.6-4.5 2-6.8 0.3-2 0.2-4-0.5-6-1.1-3.2-3-3.9-5.2-3.2-3.9 1.3-8 5.7-9.6 8.9zm-30.8 109.1q-8.8-4.5-17.1-9.7-4.3-2.6-8.5-5.4c0 2 0.1 4.1 0.4 6 0.4 2.7 1.3 5.2 2.8 7.5 2.7 4.2 6.8 6.1 11 6.1 4 0 8.1-1.7 11.4-4.5zm44.7-93.7c-4.1-6.8-11.2-10.6-18.8-11.6-7.6-0.9-15.7 1-21.7 5.8-6.4 5.1-11.5 11.8-15.9 19.2-6.3 10.8-11 23-15.7 33.7 4.2 6 9.7 11.3 16.1 15.3 6.4 4.2 13.7 7.2 21 8.7 1.3 0.2 2.1 1.5 1.8 2.7-0.2 1.3-1.5 2.1-2.7 1.9-7.9-1.6-15.7-4.8-22.7-9.3-6.6-4.3-12.5-9.7-16.9-15.9q-0.4 0.3-0.9 0.4c-2.6 0.4-5.5 1.8-7.3 3.9-1.7 1.8-2.5 4-1.3 6.6 0.5 1.1 1.4 2 2.4 2.9 1.8 1.6 3.9 2.8 5.7 4.1 5.7 4 11.6 7.9 17.5 11.6 6 3.7 12.1 7.2 18.4 10.3 3.9 2 8.1 4 12.4 5.1 2.8 0.7 5.6 1 8.4 0.6 4-0.5 6.5-2.1 7.6-4.6 1.1-2.7 0.6-6-0.8-9.7-0.5-1.3-2.3-3.1-3.2-4.6-0.4-0.9-0.7-1.7-0.8-2.3-0.1-1.1 0.2-2.5 0.8-4 0.8-2.2 2.3-4.8 2.9-6.3l9.4-23.6c2.6-7.2 6.2-16.3 7.1-25.1 0.6-5.7 0.1-11.2-2.8-15.8zm-16.3-0.3c0.2 1.2-0.6 2.5-1.8 2.8-8.6 1.8-14.9 5.7-20.1 11-5.3 5.4-9.4 12.2-13.4 19.7-0.7 1.1-2.1 1.6-3.2 0.9-1.2-0.6-1.6-2-1-3.2 5.2-9.6 10.6-18.1 18.1-24.2 5-4.1 11-7.2 18.6-8.8 1.2-0.3 2.5 0.5 2.8 1.8zm159.2-134c0 1-0.2 1.8-0.5 2.3-0.2 0.5-0.7 1.1-1.5 1.6-1 0.6-2.7 1.2-3.2 1.5l-10.2 3.6 0.2 3.5c0 0.6 0.7 4.8 0.6 6.5-0.1 1.3-0.6 2-1 2.3-0.9 0.8-2.5 1.4-4.4 1.8-2.9 0.5-6.7 0.6-8.3 0.9-4.8 0.9-9.6 1.5-14.4 2-7.1 0.7-14.3 1.1-21.5 1.6l-29.2 1.7c-1.5 0-5.3 0.7-7.8 0.4-1.3-0.1-2.4-0.5-3-1-0.5-0.3-1.1-1.3-1.5-2.7-0.4-2-0.6-5.4-0.8-6.2l-2.8-23.6c-1.7-15-3.9-30.1-5.6-45.1-0.7-6.5-1.4-13-1.9-19.5l-0.8-28c-0.4-0.3-0.7-0.8-0.9-1.4-0.2-1.3 0.6-2.5 1.9-2.8q6.8-1.2 13.7-2.1l-1.1-9.6c-0.1-0.9-0.6-2.6-0.7-3.9 0-0.7 0.1-1.3 0.3-1.8 0.2-0.7 1-1.5 2.2-2 1.5-0.8 4.4-1.3 5.2-1.5q3.4-0.9 7-1.4c3.6-0.5 7.1-0.8 10.6-1 6.1-0.4 12.3-0.6 18.4-0.7 9.1-0.1 18.2-0.1 27.4 0l23-0.3c0.7 0.1 1.9 0.6 2.5 2.3 0.6 1.8 1 6.9 1.1 7.8l0.8 27.4 4.7 65.1 0.8 17c0 1.1 0.6 3.6 0.7 5.3zm-19.4 18.1c-0.1-1.4-0.5-4.9-0.5-5.4l-1.5-23-2.7-63.6c-0.4-5.8-0.6-12.4-1.4-18.7-0.4-3.5-1-7-2-10.3l-5.3 0.4-14.3 0.7c-13.7 1-27.6 1.4-41.4 2.5-8.2 0.6-16.3 1.5-24.3 2.9l0.7 27.6c0.5 6.4 1.2 12.9 1.9 19.3 1.7 15.1 3.9 30.2 5.6 45.2l2.8 23.3c0.1 0.7 0.6 4.6 0.8 6l7.5-0.4 29-1.8c7.1-0.4 14.2-0.8 21.3-1.5 4.7-0.5 9.4-1.1 14-1.9 1.5-0.3 4.5-0.4 7.2-0.8 1-0.1 1.9-0.2 2.6-0.5zm14.6-18.1l-0.6-5-0.8-17.1-4.7-65-0.8-27.4c-0.1-0.5-0.5-3.9-0.8-5.6l-21.1 0.2c-9.1 0-18.3-0.1-27.4 0.1-6 0.1-12 0.3-18.1 0.6-2.8 0.2-5.7 0.4-8.5 0.8-2.8 0.3-5.6 0.8-8.3 1.5-0.5 0.1-2.9 0.8-4 1.1l0.6 2.8 1.1 9.8q4.6-0.5 9.3-0.9c13.8-1 27.8-1.4 41.4-2.4l14.5-0.8c0.6 0 5-0.4 6.7-0.3 1.9 0.1 2.7 1.3 2.8 1.7 1.4 3.9 2.2 8.3 2.7 12.8 0.8 6.4 1 13 1.4 18.8l2.8 63.7 0.9 14.7 8.5-3zm-74.3-89l-10 14.8c-0.4 0.7-1.9 3.2-3.1 4.5-0.9 1.1-2 1.6-2.7 1.6-0.5 0-1.6-0.2-2.6-1.4-1.9-1.9-5.6-7.6-5.9-8-0.8-1-0.6-2.5 0.4-3.3 1-0.8 2.5-0.6 3.3 0.4 0.3 0.4 2.8 4.2 4.6 6.6 0.8-1.2 1.9-2.8 2.2-3.1l10-14.8c0.7-1.1 2.2-1.3 3.3-0.6 1 0.8 1.3 2.3 0.5 3.3zm-16.5 48.1l-7.2-6.9c-0.9-0.9-1.1-2.4-0.2-3.4 0.8-1 2.3-1.1 3.3-0.2l7.5 7.1v0.1l1.4-2.3 7.6-12.6c0.7-1.1 2.1-1.4 3.2-0.7 1.1 0.7 1.5 2.1 0.8 3.2l-7.7 12.7c-0.5 0.8-1.2 2.3-2 3.4-0.6 0.9-1.3 1.6-2 1.9-0.2 0.2-1.6 0.7-2.9-0.5-0.5-0.4-1.6-1.7-1.8-1.8zm16.6 23.1l-4.9 13.2c-0.1 0.4-1.2 3.3-1.8 4.4-0.9 1.4-2.2 1.5-2.7 1.5-0.7-0.1-1.9-0.7-3-2-1.7-1.9-3.9-5.6-4.5-6.4-0.8-1.1-0.6-2.6 0.4-3.4 1-0.8 2.5-0.6 3.3 0.4 0.4 0.6 2.2 3 3.5 4.8l0.4-1 4.9-13.4c0.6-1.2 2-1.8 3.2-1.2 1.2 0.5 1.7 1.9 1.2 3.1zm7-68.5c0-1.3 1.1-2.4 2.4-2.4l13.5-0.5c1.3 0 2.4 0.9 2.5 2.2 0.1 1.4-0.9 2.5-2.2 2.5l-13.8 0.5c-1.3 0-2.4-1-2.4-2.3zm-0.5 13.8c-0.2-1.3 0.7-2.4 2-2.6l32.6-2.3c1.3-0.1 2.5 0.9 2.6 2.2 0.1 1.3-0.9 2.4-2.2 2.5l-32.4 2.3c-1.3 0.1-2.4-0.8-2.6-2.1zm18.8 14.4c1.3-0.1 2.4 0.9 2.5 2.2 0.1 1.3-0.9 2.4-2.2 2.5l-14.9 1.4c-1.2 0.2-2.5-0.7-2.7-2-0.2-1.3 0.7-2.5 2-2.7zm17.8 17.9l-34.3 2c-1.3 0.1-2.4-0.9-2.5-2.2-0.1-1.3 0.9-2.4 2.2-2.5l34.3-2c1.3-0.1 2.4 0.9 2.5 2.2 0.1 1.3-0.9 2.4-2.2 2.5zm-33.6 28.1c-0.2-1.3 0.8-2.4 2.1-2.5l13.9-1.1c1.3-0.1 2.4 0.9 2.5 2.1 0.1 1.3-0.9 2.5-2.2 2.6l-13.7 1.1c-1.3 0.1-2.5-0.9-2.6-2.2zm39.2 9.8c0.2 1.3-0.7 2.5-2 2.7-6.8 0.9-13.7 2.1-20.6 2.9-4.7 0.5-9.3 0.9-14 1-1.3 0-2.4-1-2.4-2.3 0-1.3 1-2.4 2.3-2.4 4.5-0.1 9.1-0.5 13.6-1 6.8-0.8 13.6-1.9 20.4-2.9 1.3-0.2 2.5 0.7 2.7 2zm-87.6 48.7l-1 8.4c-0.2 0.9-0.2 3.3-0.7 4.8-0.2 0.9-0.5 1.5-0.9 2-0.6 0.8-2.1 1.5-4.1 1.5-3.2 0-8.5-1.4-10.1-1.7l-26.5-4.1c-2-0.3-5.4-0.2-8.2-0.5-1.7-0.2-3.2-0.5-4.3-1-0.2-0.1-1.5-1.1-1.2-2.9 0.1-0.9 0.7-3.1 0.7-3.4l2.3-11.6q0-0.2 0.1-0.4 0-0.2 0-0.4c0.2-1.3 1.3-2.2 2.6-2l22.1 3.6 21.1 3.9c0.6 0.1 4.4 0.8 5.9 1.3 1.8 0.6 2.2 2 2.2 2.5zm-4.9 1.7l-4.2-0.9-20.9-3.8-19.7-3.2-1.9 10.2-0.4 1.6q0.5 0.1 1 0.1c2.8 0.3 6.3 0.2 8.3 0.5l26.8 4.2c1.4 0.2 8.3 1.3 9.7 1.5l0.5-4.3zm-28-34.6c1.7-4.8 6.9-8.6 14.4-6.7 0.7 0.2 1.2 0.7 1.5 1.2q0.7 0.1 1.2 0.5c4.5 3.6 5.3 9.7 3.4 14.3-2 4.9-7 8.2-13.6 5.1-7-3.3-8.7-9.5-6.9-14.4zm8.9 10.1c3.5 1.7 6.2 0 7.2-2.6 1.2-2.8 0.8-6.6-2-8.8q-0.4-0.3-0.6-0.8-0.1 0-0.3 0c-4.5-1.2-7.7 0.8-8.8 3.7-1 2.9 0.3 6.6 4.5 8.5zm-0.4 44.5c3.6 5.6 2.3 12.4-1.1 16.5-3.9 4.6-10.4 6.1-16.6-0.4-5.3-5.6-3.6-11.8 0.9-15.6 4.1-3.6 10.6-5 15.7-1.9 0.6 0.3 0.9 0.8 1.1 1.4zm-4.1 2.3c-3.2-1.5-7.1-0.4-9.6 1.7-2.6 2.2-3.5 5.7-0.5 8.9 3.5 3.7 7.2 3.2 9.5 0.6 2.3-2.8 3.1-7.4 0.6-11.2zm363.4 241.6c-1.1 4.6-3.1 9.7-3.9 13.6-1.8 8.8-3.5 17.6-5.5 26.3-1.3 5.8-2.7 11.6-4.4 17.4-0.6 2.4-1.3 7.2-2.5 11-0.7 2.2-1.6 4.1-2.6 5.2-0.3 0.3-1.1 0.9-2.4 0.8q-0.4 0-0.9-0.1l1 11.3c0 0.2-0.1 2.7-0.1 3.7-0.3 2.3-2.6 2.6-2.8 2.5q-1.2-0.2-2.5-0.9c-1.9-1-4-3.1-5.7-3.8-2.9-1.2-6.1-2-9.3-2.5-3.2-0.6-6.5-0.8-9.8-0.8-4.3 0-8.6 0.2-12.9 0.7-4.4 0.4-8.7 1.1-13 2-1.2 0.2-4.7 2-7 2.8-1.6 0.5-2.9 0.5-3.5 0.3-5.4-1.9-10.8-3-16.3-3.7-5.5-0.7-11.1-0.9-16.9-0.7l-19.7 1.5c-1.1 0.2-4 1-5.9 1.2-1.3 0.1-2.2-0.1-2.8-0.3-0.5-0.3-1.1-0.8-1.6-1.5-0.7-1.1-1.6-3-2-3.7l-7.6-11.2c-0.5-0.7-0.5-1.7-0.1-2.5-0.1-0.4-0.2-0.9-0.1-1.5 0.1-0.8 0.8-2.5 1-2.9l2.5-8.5 8.6-32.9c2.3-9.4 4.4-18.8 6.8-28.2q1.6-6 3.4-12c0.6-1.7 1.3-6.2 2.4-9.6 0.8-2.3 1.8-4.1 2.8-4.8 1.3-0.9 3.4-1.5 6-1.8 4.3-0.6 9.9-0.3 12.3-0.2 9 0.4 18.3 2.2 27 5.5 8.8 3.2 17 8 23.7 14.2q0.3 0.3 0.5 0.6c8-1.4 15.9-1.9 23.8-1.7 8.1 0.2 16.1 1 24.2 2.4l11.6 2.9c0.2 0.1 2.3 0.6 3 0.9 1.7 0.6 1.9 2 1.9 2.2 0.2 2.1-0.1 4.4-0.7 6.8zm-88.6 84.3l-0.4-4.2c0-0.5 0.1-1 0.3-1.5q0 0 0 0c-0.7 0.2-1.4 0.1-2-0.3-6.9-5.1-14.4-8.1-22.3-9.7-8-1.6-16.3-1.9-24.8-1.3l-15.3 2.1c-0.2 0-1.4 0.2-2.6 0.4l6.7 10c0.4 0.5 1.4 2.4 1.8 3.3 1.2-0.3 4.9-1 5.8-1.2l20.2-1.5c6.1-0.2 11.9 0 17.7 0.7 5 0.6 10 1.7 14.9 3.2zm13.6-60.4c3.1-11.2 5.6-22.6 7.2-34.1q0.1-0.3 0.2-0.6c-6.3-5.7-13.9-10.1-22-13.1-8.3-3.1-17.1-4.8-25.5-5.2-2.1 0-6.3-0.3-10.1 0-2.2 0.2-4.3 0.4-5.3 1.1-0.7 0.5-1 2.1-1.5 3.7-0.9 3.2-1.5 6.8-1.9 8.3q-1.9 5.9-3.4 11.8c-2.4 9.4-4.5 18.8-6.9 28.2l-8.6 33-2.3 7.9 1.2-0.2 15.8-2.1c8.9-0.6 17.7-0.3 26 1.4 8 1.6 15.6 4.6 22.6 9.4 4.6-16.6 10.1-32.9 14.5-49.5zm49.1 61.6l-1.1-12-13.1-0.9c-7.3 0-15.3 0.4-23.3 1.5-7.3 1-14.5 2.5-21 4.8q0.1 0.3 0.1 0.5l0.4 4.4c2.2-0.9 4.9-1.9 5.7-2.1 4.4-0.8 8.9-1.5 13.3-2 4.5-0.5 9.1-0.8 13.6-0.7 3.4 0 7 0.2 10.5 0.8 3.5 0.6 7 1.5 10.3 2.9l4.6 2.8zm21.8-90.3l-1.6-0.5-10.9-2.8c-7.9-1.3-15.7-2.1-23.5-2.3-7.7-0.2-15.4 0.3-23.1 1.6-1.6 11.5-4.2 22.8-7.2 34-4.4 16.2-9.7 32.3-14.2 48.4 6.4-2.1 13.4-3.6 20.5-4.5 8.2-1.1 16.5-1.5 24-1.5l15.1 1.1c0.3 0 2 0.3 3 0.5 0.5-1 1-2.4 1.3-3.8 0.9-3.4 1.6-7.3 2.2-9.4 1.6-5.7 3-11.4 4.3-17.2 2-8.7 3.7-17.4 5.5-26.2 0.8-3.9 2.9-9 4-13.7 0.3-1.3 0.5-2.5 0.6-3.7zm-74.7 2.3c-0.6 1.2-2 1.7-3.2 1.1-5.4-2.7-11-4.6-16.8-5.6-5.8-1-11.8-1.1-17.7-0.3-1.3 0.2-2.5-0.7-2.7-1.9-0.2-1.3 0.7-2.5 2-2.7 6.4-1 12.9-0.9 19.2 0.2 6.2 1.1 12.3 3.1 18.1 6.1 1.2 0.5 1.7 2 1.1 3.1zm-8.8 29.3c-0.6 1.1-2.1 1.5-3.2 0.9-5.2-2.9-10.5-4.6-16-5.4-5.5-0.8-11.1-0.6-17 0.4-1.3 0.3-2.5-0.6-2.7-1.9-0.2-1.3 0.6-2.5 1.9-2.7 6.3-1.2 12.5-1.4 18.5-0.5 6 0.9 11.9 2.8 17.6 6 1.1 0.6 1.5 2 0.9 3.2zm-10.7 25.9c-0.5 1.2-1.8 1.8-3 1.3-5.4-2.1-10.3-3.4-15.3-3.9-5.1-0.5-10.1-0.1-15.7 1.2-1.3 0.2-2.6-0.6-2.9-1.8-0.3-1.3 0.6-2.6 1.8-2.9 6.2-1.3 11.7-1.7 17.2-1.2 5.5 0.5 10.9 1.9 16.6 4.2 1.2 0.5 1.8 1.9 1.3 3.1zm77.9-39.9c-0.5 1.2-1.9 1.7-3.1 1.2-4.4-1.9-8.7-3.2-13.2-3.8q-6.7-1-13.7-0.2c-1.3 0.1-2.5-0.8-2.6-2.1-0.2-1.3 0.8-2.5 2.1-2.6 5.1-0.6 10.1-0.5 14.9 0.2q7.3 1.1 14.4 4.2c1.2 0.5 1.7 1.9 1.2 3.1zm-6.4 21.9c-0.5 1.2-1.8 1.9-3 1.5-4.2-1.4-8.4-2.1-12.6-2.3-4.3-0.2-8.6 0.1-12.9 0.8-1.3 0.2-2.5-0.7-2.7-2-0.2-1.3 0.6-2.5 1.9-2.7 4.7-0.7 9.3-1.1 13.9-0.8 4.7 0.2 9.3 1 13.9 2.5 1.2 0.4 1.9 1.8 1.5 3zm-3.1 19.1c-0.2 1.2-1.4 2.1-2.7 1.9-4.6-0.8-9-1-13.4-0.8-4.5 0.3-9 0.8-13.6 1.6-1.3 0.2-2.5-0.7-2.7-2-0.2-1.3 0.7-2.5 2-2.7 5.8-0.9 11.3-1.6 17-1.7 3.7 0 7.6 0.3 11.5 0.9 1.3 0.2 2.1 1.5 1.9 2.8zm0.5-116c-0.4 1-1.6 2-3.4 2.7-3.2 1.1-8.8 1.5-10.3 1.7-8.1 0.9-16 0.9-23.4-1.3-4.9-1.5-9.6-4-13.9-7.9-12.7-11.7-14.6-25.3-10.3-37.9 6.1-18.2 25.4-34.5 43.4-39.9 1.2-0.3 2.6 0.4 2.9 1.6l0.1 0.1q0.3 0.4 0.4 0.9l4.9 18.4c0 0.1 0.3 1.8-1.4 2.8-0.6 0.3-2.2 1.1-2.4 1.2l-4.5 3c-2.1 1.8-4 3.8-5.6 6-1.5 2.2-2.7 4.6-3.4 7.3-1.3 4.8-0.7 9.2 1.5 12.7 2.2 3.4 6 5.7 11 6.4l11.7-0.9c0 0 2.1 0.8 2.1 3.1 0 1.8 0 6.3 0 6.7 0.1 1.8 0.9 5.5 1.1 8.5 0.1 2.1 0 3.8-0.5 4.8zm-4.2-4.4c-0.2-3.1-1-6.9-1.1-8.7 0-0.3 0-3 0-5.1l-9.7 0.6c-6.5-0.8-11.5-4-14.4-8.5-2.9-4.4-3.8-10.2-2.1-16.5 0.9-3.1 2.3-6 4.1-8.7 1.9-2.6 4.1-4.9 6.5-6.9l5.2-3.5 1.1-0.6-4.1-15c-16 5.5-32.7 20-38.1 36.1-3.7 11-2 22.8 9 32.9 4.7 4.3 9.9 6.7 15.5 7.7 5.8 1.2 11.9 1 18 0.3l10-1.6c0.3-0.5 0.2-1.5 0.1-2.5zm-73.1-18.2c1.4 5.1 1.5 10.5-0.6 15.8-3 7.8-9.9 13.2-18.2 16.5-11.6 4.6-25.9 5.1-36 2.7-0.3-0.1-1.7-0.8-2-2.7-0.4-2.2-0.8-7.6-0.9-8l-4.2-30.8c-1.9-10.9-3.4-21.9-5.4-32.8q-1.2-7-2.7-13.9c-0.3-1.2 0.4-2.4 1.6-2.8q0.3-0.5 0.9-0.9c10.9-5.7 27.6-8.2 40.6-4.1 9.3 3 16.7 9.3 19.1 20 0.5 2.4 0.6 4.7 0.3 7-0.4 3.2-1.5 6.4-2.8 9.5-0.3 0.6-2 3.8-2.7 5.1l5.8 5.9c3.2 4 5.9 8.7 7.2 13.5zm-4.5 1.3c-1.2-4.3-3.5-8.3-6.4-11.8-1.2-1.5-3.8-3.5-5.4-5.3-0.6-0.8-1.1-1.5-1.4-2.2-0.2-0.4-0.4-1.3 0-2.4 0.5-1.6 2.7-5.2 3-6 1-2.3 1.9-4.5 2.3-6.8 0.4-2.2 0.5-4.4 0-6.7-2-9-8.2-14.1-15.9-16.6-11.8-3.8-26.9-1.4-36.8 3.7q1.4 6.3 2.5 12.7c1.9 10.9 3.4 21.9 5.3 32.8l4.3 31c0.1 0.4 0.4 4.6 0.7 7 9.2 1.8 21.6 1.2 31.7-2.8 7.1-2.8 13-7.2 15.6-13.9 1.7-4.2 1.6-8.6 0.5-12.7zm-42.3-25q0-0.1 0-0.1c-1.1 0-2.1-0.8-2.3-2l-3.2-17.8c-0.2-1 0.4-2 1.2-2.4 0.4-0.4 0.8-0.6 1.3-0.7 3-0.6 6.5-1.2 9.7-0.9 2.5 0.2 4.8 1 6.9 2.5 4.9 3.7 5 8.2 3 12.3-2.5 5.1-9.1 9.6-13.7 10.8-1.3 0.3-2.6-0.5-2.9-1.7zm2.3-3.1c3.6-1.1 8.2-4.4 10.1-8.1 1-2.2 0.9-4.5-1.7-6.4-1.3-1-2.8-1.4-4.4-1.6-2.2-0.2-4.6 0.1-6.8 0.5zm19.2 33.9c-0.9 4.6-5.7 9.3-9.8 11-0.9 0.3-1.9 0.1-2.6-0.5q-0.3 0.2-0.8 0.3c-1.3 0.3-2.5-0.5-2.8-1.8l-3.4-13.9c-0.3-0.4-0.5-0.8-0.7-1.3-0.2-1.2 0.6-2.5 1.8-2.8 2.3-0.5 4.8-1.2 7.3-1.4 2-0.1 3.9 0.1 5.7 1 4.9 2.3 6 5.9 5.3 9.4zm-7.3-5.1c-1.1-0.6-2.2-0.6-3.4-0.6-1.3 0.1-2.6 0.4-3.8 0.7l2.8 11.7q0.1-0.1 0.1-0.1c2.5-1 5.2-3.4 6.4-6 1-2.1 0.8-4.4-2.1-5.7zm-45.7 22.5c0.7 2.2 1.2 4.5 1.3 6.7 0 0-0.3 2.3-2.4 2.4-0.4 0.1-1.7 0.2-1.8 0.2l-7.4 0.7c-2.8 0.3-7.5 1.3-11.5 1.5-2.3 0.1-4.4-0.1-5.9-0.7-0.4-0.2-1-0.6-1.5-1.4-0.6-1.1-1.4-4.2-1.7-4.8l-6.7-15.9-1.7-4.5-9.5 1.3-2.2 0.5-4.7 17.8c-0.2 0.6-1 4.6-1.5 6.1-0.6 1.4-1.7 1.9-2.1 2-3.7 0.8-7.8 1.3-12 1.6-6 0.4-12.2 0.4-17.8 0.5-1.3 0.1-2.3-1-2.4-2.3q0-0.7 0.4-1.3-0.1-0.5 0.1-1.1 1.5-5.2 3.4-10.4c2.9-7.9 6.1-15.6 9-23.6l16.5-45c1.5-3.8 3.1-7.7 5.1-11.3 1.5-2.5 3.1-4.9 5-7 1.1-1.2 2.8-2.7 4.6-3.5 1.6-0.7 3.2-1 4.7-0.7 1.7 0.4 3.5 1.8 5 4 2.3 3.2 4.1 8.1 5.1 10 2.9 5.7 5.5 11.6 8 17.4 3.7 8.8 7 17.8 10.4 26.6l10.6 25.5c1.1 2.6 2.6 5.6 3.6 8.7zm-3.7 4.6q-0.3-1.5-0.8-3.1c-1-3-2.4-5.8-3.5-8.5l-10.6-25.5c-3.4-8.8-6.7-17.7-10.4-26.4-2.4-5.8-5-11.5-7.8-17.1-0.8-1.7-2.2-5.4-4-8.4-0.9-1.5-1.8-3-2.8-3.2-0.8-0.1-1.6 0.2-2.3 0.6-1 0.7-1.9 1.5-2.6 2.2-1.7 1.9-3.1 3.9-4.3 6.1-2 3.5-3.5 7.2-4.9 10.7l-16.5 45c-2.9 7.9-6.1 15.6-8.9 23.5q-1.6 4.4-3 8.8c4.7-0.1 9.6-0.2 14.5-0.5 3.5-0.3 6.9-0.6 10.1-1.3l1.2-4.9 5.1-19.2c0.2-0.4 0.6-1.2 1.6-1.6 0.9-0.4 3.3-0.8 3.8-0.9l11.7-1.7c0.3 0 1.9 0.2 2.7 2 0.7 1.4 2 5.2 2.2 5.7l6.7 15.9c0.2 0.4 1 2.9 1.3 3.8 1.2 0.3 2.9 0.2 4.7 0.1 3.5-0.4 7.4-1.2 9.7-1.4zm-32.5-41c0.2 0.9-0.1 1.6-0.5 2.1-0.3 0.4-0.8 0.7-1.5 0.9-0.5 0.1-1.5-0.1-2-0.1l-3.9 0.3c-0.6 0-5.5 0.4-7.4 0.3-2.3-0.1-3-1.8-3.1-2.2-0.1-0.7 0-1.5 0.3-2.4 0.3-1.2 0.9-2.6 1.1-3.4l3.8-13.5c0.3-1.3 1.6-2 2.8-1.7h0.1c0.9 0 1.7 0.4 2.2 1.2 1.8 3.1 3.9 6.8 5.5 10.6 1.2 2.7 2.1 5.4 2.6 7.9zm-5.3-1.7c-0.4-1.4-1-2.9-1.6-4.3-0.9-2.1-2-4.2-3-6.2l-2.5 8.8-0.6 2.1c1.8-0.1 4.3-0.2 4.7-0.2zm-187.9-213.3q1.1-0.7 2.1-1.3c-1.4-1.9-2.9-3.8-4.2-5.7-1.4-2.1-2.6-4.2-3.6-6.5-2.2-5.4-3.4-11-3.8-16.8-0.7-8.3 0-16.9 0.6-25.1 0.1-1.3 1.2-2.2 2.5-2.1 1.3 0 2.3 1.2 2.2 2.5-0.2 3.6-0.5 7.4-0.7 11.1l40-0.5c1.2-0.1 2.2 0.7 2.4 1.8q0.6-2.6 1.2-5.1c0.3-1.3 1.6-2.1 2.9-1.7 1.3 0.3 2 1.5 1.7 2.8-1.8 7.1-3.3 15.3-6.3 22.5-2.1 5.2-5 9.9-9.2 13.5-2.3 2-4.8 3.7-7.4 5.2-3.6 2.1-7.4 3.9-11.1 5.8q1.1 1.5 2.1 3.1c3.1 4.9 5.1 10.2 6.1 15.7 1 5.5 1.1 11.1 0.3 16.8-0.4 2.4-0.7 4.9-1.4 7.3-0.5 1.8-1.2 3.4-2.1 5-1.8 2.8-4 5.3-6.5 7.5-3.5 3.1-7.5 5.7-11.2 8.6q1.4 1.4 2.6 3c1.6 1.9 3 3.9 4.2 6.2 2.6 5.2 4 10.5 4.6 15.8 0.8 7.9-0.2 15.9-1.6 24-0.2 1.4-1.5 2.4-2.9 2.1-1.4-0.2-2.3-1.5-2.1-2.9 0.6-3.7 1.2-7.4 1.5-11.1-3.8 0.7-7.6 1.3-11.4 2.1-4.5 0.9-9 2-13.4 3.1q-0.5 0.2-1 0.1c-0.3 1-1.3 1.7-2.4 1.6-1.3 0-2.3-1.1-2.2-2.4 0.3-7 1.7-14.3 4.2-21.2 2.5-7 6.2-13.6 11-18.8q0.9-1 1.9-1.9c-1.7-1.9-3.5-3.9-5-6-2.9-4.3-4.7-9.5-5.5-14.8-0.7-5.3-0.5-10.7 0.6-15.6 1.3-5.7 4-11.1 7.5-15.9 3.6-4.7 8-8.8 12.8-11.8zm-13.3 22.4q-1.4 3.1-2.2 6.4c-0.5 2.5-0.8 5.3-0.9 8q0.3-0.1 0.6-0.2l27.5-5.9c0.6-0.1 1.3 0.1 1.8 0.4 0.2-3.7 0-7.4-0.7-11q-0.3-1.6-0.7-3.2l-25.3 5.5q0 0-0.1 0zm16.5 74.3c0-2.3 0-4.5-0.3-6.8q-0.3-3-1.1-6.1l-19.6 4.9c-0.6 0.1-1.2 0-1.7-0.3-1.5 4.4-2.4 9.1-3 13.6 4.3-1.1 8.7-2.1 13.1-3 4.2-0.9 8.4-1.6 12.6-2.3zm-10.4-29.1q-0.8 0.8-1.6 1.6c-3.8 4.2-6.8 9.2-9.1 14.6l18.3-4.5q-0.7-1.7-1.5-3.4c-1-2-2.2-3.7-3.6-5.4q-1.2-1.5-2.5-2.9zm20.3-32.2q0-0.1 0-0.2-0.2 0.1-0.4 0.2l-27.4 5.8c-0.5 0.1-1 0.1-1.5-0.1q0.1 0.7 0.2 1.5c0.7 4.5 2.2 9 4.7 12.6 1.5 2.1 3.1 3.9 4.7 5.7 3.8-2.9 7.7-5.6 11.3-8.7 2.1-1.9 4-3.9 5.5-6.4 0.8-1.2 1.3-2.5 1.6-3.8 0.7-2.2 1-4.4 1.3-6.6zm-18.2-74.6c0 2.9 0.1 5.7 0.3 8.6q0.1 1.7 0.4 3.3l35.8-0.7c0.7 0 1.3 0.2 1.8 0.7 1.6-4.3 2.8-8.9 3.8-13.3-0.4 0.5-1 0.9-1.7 0.9zm11.4 35.6c3.9-2 7.9-3.8 11.6-6 2.4-1.3 4.7-2.9 6.8-4.7 2.8-2.5 5-5.6 6.7-9.1l-35 0.8c0.5 2.5 1.3 4.9 2.3 7.2 0.8 2 1.9 3.9 3.1 5.7 1.4 2.1 3 4.1 4.5 6.1zm-1.2 6.2q-1.3 0.7-2.5 1.4c-4.3 2.8-8.3 6.4-11.5 10.7q-0.8 1.1-1.5 2.2l21-4.6q-1.3-3.3-3.2-6.4-1.1-1.7-2.3-3.3zm181.5 44c4 0.4 8.7 1 12.8 2.6 3.1 1.1 5.9 2.7 8 5 3 3.3 5 7.4 6.3 11.8 1.8 6.2 2.4 13 3 18.9 0.4 3.9 0.6 7.9 0.8 11.8 0.4 9.1 0.4 18.1 0.8 27.2 0.2 3.5 0.5 7.6-0.2 11.3-0.5 2.8-1.5 5.4-3.4 7.6-3.4 4-8.2 6.3-13.8 7.6-11.1 2.6-25.2 1.1-34.3 1.8-9.5 0.6-18.8 1.3-28.2 1.6-6.2 0.2-12.5 0.3-18.8 0.2-3.9-0.1-8.9 0-13.4-0.9-3.4-0.6-6.5-1.9-8.9-4-4.6-4.1-7.5-9.6-9.4-15.6-2.6-8.4-3.3-17.8-4.2-25.7-0.4-0.3-0.7-0.9-0.7-1.4-0.6-8.3-3.7-21.2-2.7-31.9 0.5-5.4 2.1-10.2 5.2-13.8 4.8-5.3 11.5-8.4 18.8-10.1 10.3-2.5 21.8-2.4 30.6-3 10.2-0.8 20.6-1.6 30.9-1.8 7-0.1 14 0.1 20.8 0.8zm-94.2 85.4c0.8 2.5 1.7 4.8 2.9 7l41.4-42.2q-1.4-0.9-2.7-1.6l-47-28.1c-1.7 3.4-2.2 7.7-2.2 12.2 0 9.2 2.3 19.4 2.9 26.4 0.3 0.3 0.6 0.8 0.6 1.3 0.9 7.7 1.6 16.9 4.1 25zm117.2 9.3c-6.7-8.9-13.4-18-20.4-26.7-4.6-5.7-9.2-11.2-14.1-16.4-4.3 3-8.8 5.2-13.7 6.3-4.2 0.9-8.3 0.2-12.3-1.2-2.8-1.1-5.6-2.5-8.3-4.1q-0.1 0.2-0.2 0.3l-42.5 43.3q0 0.1-0.1 0.2 1.1 1.4 2.5 2.6c1.7 1.6 4.1 2.4 6.6 2.9 4.2 0.8 8.9 0.7 12.5 0.8 6.3 0.1 12.5 0 18.7-0.2 9.3-0.4 18.5-1 28-1.7 7.7-0.5 19 0.5 28.9-0.8 5.6-0.7 10.7-2.2 14.4-5.3zm-0.4-73.9q-0.8-2.5-1.9-4.8c-8.3 9.6-17.4 23.5-28.3 32.6q-0.1 0.1-0.2 0.1c4.9 5.2 9.5 10.7 14 16.3 6.8 8.5 13.3 17.2 19.8 25.8q0.6-1.4 0.9-3c0.5-3.4 0.2-7.1 0.1-10.3-0.4-9-0.4-18.1-0.8-27.2q-0.3-5.8-0.8-11.5c-0.6-5.6-1.1-12.1-2.8-18zm-11.4-13.8c-3.8-1.4-8.1-1.9-11.7-2.3-6.7-0.7-13.4-0.9-20.2-0.8-10.2 0.2-20.5 1-30.6 1.8-8.7 0.6-19.9 0.5-29.9 2.9-6 1.4-11.6 3.8-15.7 8l46.6 27.9c4.4 2.5 9.3 5.9 14.4 7.7 3.2 1.2 6.4 1.7 9.7 1 7.5-1.5 14-6.4 20-12.3 9.1-9.1 16.9-20.7 24.1-28.9q0.1-0.1 0.2-0.2-0.4-0.5-0.8-1c-1.6-1.8-3.7-3-6.1-3.8zm13.2-79.3c-2.5-10.1-3.5-20.8-3.6-31.5-0.1-10.7 0.8-21.4 2.1-31.5 0.8-6.2 1.6-13.4 4.3-19.4 1.9-4.4 4.8-8.1 9.3-10.6 2.5-1.4 5.3-2.3 8.2-2.7 2.8-0.4 5.6-0.5 8.3-0.3 2.1 0.1 4.1 0.3 6.1 0.7 2.1 0.4 4.1 0.9 6.1 1.6 11 4.2 16.6 12.5 19.2 22.4 3.6 13.6 1.4 30.4 0.9 43.2 0 1.3-1.1 2.3-2.4 2.3-1.3-0.1-2.4-1.2-2.3-2.5 0.4-12.3 2.7-28.6-0.8-41.8-2.2-8.5-6.9-15.6-16.3-19.1-1.7-0.7-3.5-1.1-5.2-1.5-1.9-0.3-3.7-0.5-5.6-0.6-2.3-0.2-4.8-0.1-7.3 0.3-2.3 0.3-4.6 1-6.6 2.1-3.5 2-5.8 5-7.3 8.4-2.5 5.6-3.2 12.3-3.9 18.1-1.3 9.9-2.2 20.4-2.1 30.8 0.1 10.4 1.1 20.7 3.5 30.5 1.3 5.4 3.3 10.5 6.4 14.5 3 3.8 7.2 6.4 13 6.9 3.2 0.2 5.6-1 7.4-3 3.1-3.3 4.6-8.7 5.6-13.2 1.2-5.5 1.8-11.3 2-17.2 0.4-8.9 0.1-17.9 0.1-26.5 0-4.9 0.2-10-0.2-15.1-0.3-3.2-0.8-6.4-1.8-9.4-1-3.1-3.7-5.3-6.5-5.9-2.7-0.5-5.5 0.4-7.4 3.5-1.1 1.9-1.6 4.4-1.8 6.9-0.4 4.2-0.1 8.8-0.3 12.3l-0.9 21.9c0 1.3-1.1 2.4-2.4 2.4-1.3-0.1-2.3-1.1-2.3-2.4l0.9-22.1c0.3-4.3-0.2-9.9 0.5-14.7 0.4-2.5 1.1-4.8 2.3-6.7 3.1-5.1 7.9-6.6 12.4-5.7 4.3 0.9 8.4 4.3 10 9 1.1 3.4 1.7 6.9 2 10.6 0.4 5.1 0.2 10.4 0.2 15.4 0 8.6 0.3 17.8 0 26.7-0.3 6.2-0.9 12.2-2.2 18-1.1 5.3-3.1 11.5-6.7 15.4-2.7 3-6.4 4.9-11.3 4.5-5.8-0.5-10.2-2.7-13.7-5.9-5.1-4.7-8.1-11.7-9.9-19.1zm36.7 74.3c9-6.7 18.5-12.6 28-18.5l12.1-7.5c0.5-0.3 2.5-1.7 3.4-2.1 1-0.4 1.8-0.2 2.2 0 1.4 0.6 2.8 1.4 4.2 2.4 2.8 1.9 5.4 4.3 8.1 6l33.9 22.8 12.8 9.3c0.8 0.6 2.5 1.4 3.7 2.3 0.9 0.7 1.5 1.4 1.9 2.1 0.1 0 0.8 2.1-1 3.3-0.7 0.5-2.5 1.7-2.7 1.8l-4.6 3q0.1 0.4 0.1 0.7l0.2 46q0 0.4-0.2 0.7c0.2 0.9-0.2 1.8-1 2.3-7.2 4.8-15.1 7.8-23.2 9.7-8.1 1.8-16.5 2.5-24.9 2.5-8.5 0.1-16.8-0.5-24.9-1.8-8.2-1.4-16.2-3.6-24.2-6.9-0.7-0.3-1.2-0.9-1.4-1.6-0.3-0.4-0.5-0.9-0.5-1.5-0.3-8.9-0.3-17.9-0.7-26.8-0.2-5.9-0.6-11.9-1.3-17.7q0-0.4 0.1-0.8l-5.8-3.5-3 55.5c1.9-0.1 3.9 0.7 5.6 3 1.2 1.6 2 3.4 2.5 5.4 0.7 2.6 0.8 5.3 1 7.9 0.1 0.8 0.8 4.6 0.7 6.2 0 1.3-0.7 2.1-1 2.4-0.4 0.3-1 0.6-1.8 0.7-1 0.2-2.5 0.1-3.2 0.2l-7.6 0.9c-0.9 0.2-1.8-0.1-2.3-0.7-1.2 0.1-2.3-0.6-2.7-1.8q-0.6-2.3-0.9-4.7-0.3-2.4-0.2-4.8l1.1-6.7c0.7-2 2.2-4.2 3.9-5.8l3.4-60.5-7-4.2c-1.2-0.6-1.6-2-1-3.2q0.1-0.3 0.4-0.5 0.1-0.6 0.6-1.1c5.4-5.2 11.2-9.9 17.2-14.4zm-9.2 86.7c-0.4 0.6-1 1.1-1.7 1.2-1 0.9-1.7 2.2-2.1 3.3l-0.9 5.3q0 2.1 0.2 4.1 0.2 1.6 0.6 3.1l8-0.9 1.3-0.1c-0.2-1.5-0.5-3.8-0.5-4.3-0.2-2.3-0.3-4.8-0.9-7.1-0.3-1.4-0.9-2.7-1.7-3.8-0.7-0.9-1.5-1.1-2.3-0.8zm106.7-15.4v-7.5c-14.4 6.7-29.8 9.2-45.4 8.8-15.4-0.3-30.9-3.5-45.6-8.2q0.1 4.9 0.2 9.7c7.3 3 14.6 5 22.2 6.2 7.9 1.3 15.9 1.8 24.1 1.8 8.1 0 16.1-0.6 23.8-2.4 7.3-1.7 14.3-4.3 20.7-8.4zm-0.1-43.4l-1.4 0.9-32.5 21c-2.8 1.7-5.8 4.1-9 5.9-1.5 0.9-3 1.7-4.5 2.2-0.5 0.1-1.3 0.2-2.3-0.2-1-0.5-3-2.3-3.5-2.6l-12.4-7.4-22.3-12.2-4.5-2.7c0.5 5 0.8 10.1 1 15.2q0.2 5.7 0.4 11.4 0.1 0 0.3 0.1c14.6 4.8 30.1 8.1 45.5 8.4 15.4 0.4 30.6-2.2 44.7-9.1q0.3-0.1 0.6-0.2zm-94.5-24c-5.4 3.9-10.6 8.1-15.4 12.7l5.8 3.5q6.4-0.9 12.8-2.2c10.5-2.1 20.8-4.6 31.3-6.5q0.2 0 0.4 0 0-0.3 0.1-0.5c1.7-4.6 7.7-8.3 13.4-7 0.6 0.1 1 0.4 1.4 0.8q0.4 0.2 0.7 0.6c1.3 1.8 2.4 3.6 2.8 5.6 0.3 1.4 0.4 2.9 0 4.5-0.7 2.9-3 5.1-5.9 6.2-2.8 1.1-6.1 1-8.4-0.6-2.2-1.4-3.5-3.1-4.1-4.8-10.3 1.9-20.5 4.3-30.7 6.3q-3.8 0.8-7.6 1.4l12.4 7.6 22.3 12.2 12.6 7.5c0.3 0.2 1.8 1.3 2.6 1.9q1.4-0.6 2.8-1.4c3.1-1.8 6.1-4.2 8.9-5.9l32.3-20.9 10.5-6.8 0.4-0.2-2.4-1.7-12.8-9.2-33.6-22.6c-2.7-1.8-5.5-4.2-8.3-6.2q-1.2-0.8-2.5-1.5c-0.7 0.5-2 1.3-2.3 1.5l-11.9 7.3c-9.3 5.9-18.8 11.8-27.6 18.4zm41.6 13.2c1.1 0.8 2.7 0.6 4.1 0.1 1.4-0.5 2.7-1.5 3-2.9 0.3-1.1 0.1-2-0.2-3-0.3-1-0.9-2-1.6-2.9-2.6-0.4-5.3 0.9-6.7 2.8-1.4 1.8-1.3 4.1 1.4 5.9zm-227.4 171c3.1 0.6 6.2 1.5 9.2 2.6 3 1.1 5.9 2.4 8.7 3.8q6.6 3.5 13.2 7.3c16.8 9.6 33 20.4 50.1 29.5q0.3-0.1 0.6-0.1c5.7-0.6 11.6-0.6 17.3 0.2 5.8 0.8 11.5 2.5 16.7 5.3 3.4 1.9 6.5 4.2 8.7 7.1 1.5 2 2.6 4.3 3.1 7.1 1 4.8-0.2 9.3-2.3 13.4-3 5.6-7.9 10.6-11.7 15-2 2.5-4.2 5-6.9 6.4-2.1 1-4.4 1.4-7.2 0.7-2.4-0.7-4.6-1.9-6.6-3.4-2.7-2.1-5.1-4.8-7.2-7.4-2.4-2.8-4.6-5.8-6.7-8.7-3.2-4.4-6.2-8.9-9.3-13.4q-0.3-0.5-0.3-1.1c-5.5-2.2-10.8-4.6-15.9-7.3-8.5-4.4-16.8-9.5-25.2-14.7-6.1-3.7-12.4-7.3-18.5-11.1q-4-2.5-7.8-5.3l-4-3-3.2-2.6c-2.5-1.9-6.8-5.7-8.4-9.5-1.5-3.5-1.2-6.9 2.8-9.7 1.4-0.9 2.9-1.4 4.5-1.6 2-0.2 4.2 0.1 6.3 0.5zm69.5 50.7q-1.9 3.5-3.5 7.1 2.8 1.2 5.7 2.4l6.9-13q-2.7-1.5-5.4-3-2 3.2-3.7 6.5zm12.4 0.2l-3.4 6.6c5.4 4.8 11.1 9.6 17 14 6 4.5 12.2 8.6 18.6 12.1q0 0 0 0c2.3-2.7 4.6-5.5 6.4-8.5q-0.3-0.1-0.6-0.4c-5.4-5.1-11.1-9.9-17.3-13.9-6.2-4.1-12.8-7.3-19.9-9.5q-0.4-0.1-0.8-0.4zm29 36.3c-6.3-3.4-12.4-7.5-18.2-11.9-5.8-4.3-11.3-8.9-16.5-13.6l-0.7 1.3c-0.2 0.5-0.6 0.8-1 1 2.8 4 5.5 8.1 8.3 12 2.1 2.9 4.2 5.7 6.5 8.5 1.9 2.3 4 4.7 6.5 6.6 1.5 1.2 3.1 2.1 5 2.6 1.4 0.4 2.7 0.2 3.8-0.3 2.1-1.1 3.8-3.3 5.5-5.2q0.4-0.5 0.8-1zm-24.7-39.7c6.8 2.3 13.1 5.4 18.9 9.3 6.2 4 12 8.8 17.4 13.9 0.7-2.2 1-4.6 0.5-7-0.5-2.5-1.7-4.6-3.2-6.3-1.7-1.9-3.9-3.3-6.2-4.6-4.7-2.6-9.9-4.1-15.1-4.8-4.1-0.6-8.2-0.7-12.3-0.5zm-87.1-42.9c-1.4-0.3-2.8-0.5-4.1-0.5-1.1 0.1-2.2 0.3-3.2 1-1.6 1-1.7 2.4-1.1 3.8 1.4 3.1 5 6.1 7 7.7l3.1 2.5 4 3c3.3 2.4 6.7 4.6 10.1 6.7 5.3 3.2 10.6 6.3 15.9 9.5 8.3 5.1 16.4 10.1 24.9 14.5q3 1.6 6.1 3.1 1.6-3.7 3.5-7.3 1.8-3.5 3.8-6.7c-13.6-7.8-26.8-16.4-40.4-24.1q-6.4-3.8-13-7.1c-2.6-1.4-5.4-2.6-8.2-3.7-2.7-1-5.6-1.8-8.4-2.4zm15.9-49.7c0.4-0.1 1.7-0.1 2.7-0.1-0.2-1.4-0.4-3.4-0.4-3.8-0.1-3.5-0.8-8.2-0.9-12.4 0-2.2 0.1-4.2 0.6-6 0.1-0.3 0.6-1.4 2-1.8 0.9-0.2 3.3-0.5 3.5-0.5 1.3-0.1 7.5-1.1 11.1-1 2.4 0 4 0.9 4.5 1.5 0.3 0.5 0.6 1.2 0.7 2.1 0.2 1.3 0.1 3.3 0.1 4.1 0.4 3.5-0.1 8.9 0.2 13.4 0.1 1.2 0.2 2.4 0.5 3.4l2.3-0.1 11.8 0.4c0.3 0 2.3 0 3.2 0.1 1.4 0.2 2 1.1 2.2 1.4 0.4 1 0.7 2.2 0.9 3.4 0.3 2.3 0.1 4.9 0.3 6.8 0 0.9 0.6 3.4 0.5 5 0 1.1-0.2 1.9-0.6 2.4-0.2 0.5-0.8 1.1-1.9 1.3-1.3 0.3-4.5 0.2-5.3 0.2-2.4 0-7-0.8-10.7-0.9q-0.9 0-1.8 0c0.2 1.1 0.4 2.4 0.4 2.6 0.3 2.7 1.2 6.9 1.4 10.5 0.2 2 0 3.9-0.4 5.3-0.1 0.3-0.9 1.7-2.9 1.7-1.4 0-5-0.3-5.4-0.3-1.3-0.1-5.2 0.2-7.6-0.1-1.4-0.2-2.4-0.6-3-1.1-0.7-0.6-1.4-1.8-1.7-3.6-0.7-3.2-0.7-8.6-0.8-10.2l-0.3-2.2c-3.8-0.7-8.6 0.9-12.6 0.7-1.5 0-3-0.3-4.4-0.9-0.4-0.1-1.2-0.6-1.5-1.8-0.3-1-0.5-3.3-0.5-3.7l-2.2-11.3q-0.1-0.2-0.1-0.3-0.1-0.3-0.2-0.7c-0.1-1.3 0.9-2.4 2.2-2.6zm0.3 4.7l-11.3 0.8 1.8 9.5c0.1 0.3 0.2 1.6 0.3 2.4 3.7 0.9 8.4-0.7 12.6-0.6 1.5 0 3 0.2 4.3 0.6 0.4 0.2 1.4 0.7 1.7 2.1 0.2 1 0.4 3.4 0.4 3.7l1 10.8h7.7l3.8 0.3c0.1-1 0-2.2-0.1-3.4-0.3-3.2-1.1-6.6-1.3-8.9 0-0.3-0.5-3.1-0.6-4.2-0.2-1.8 1.2-2.7 1.4-2.8 1.3-0.6 3.3-0.8 5.5-0.8 3.6 0.2 8 1 10.4 0.9h3c-0.1-1.3-0.3-3.2-0.3-3.9-0.1-1.5-0.1-3.6-0.2-5.6q-0.1-0.8-0.3-1.6h-1.7l-11.4-0.4c-0.3 0-2.8 0.2-3.8 0.1-1.7 0-2.4-1.1-2.5-1.4-0.8-1.7-1.2-3.9-1.3-6.4-0.3-4.5 0.2-9.8-0.2-13.2 0-0.6-0.1-2.4-0.1-3.5-3.2-0.2-9.7 0.8-11 1l-1.8 0.2c-0.1 1-0.2 2.1-0.2 3.3 0.1 4.2 0.9 8.9 0.9 12.4 0 0.6 0.5 4 0.5 5.4 0 1.4-0.7 2.2-1 2.4-0.5 0.4-1.2 0.7-2 0.8-1.4 0.2-3.4 0-4.2 0zm63.3 236c-2.8 1.1-5.8 2-8.8 2.7-3.4 0.8-6.9 1.4-10.4 1.7-3.5 0.3-7.1 0.2-10.6-0.3-19.1-2.6-32.9-13.7-40.2-27.7-7.7-15-7.9-33.4 1.2-48.8 6.3-10.7 15.2-19.7 26.4-25 10.1-4.8 22.2-6.6 36.1-4.1 24.5 4.4 35.9 23 37.7 43.2 1.8 21.4-7.3 44.4-23 54.2-2.7 1.7-5.5 3-8.4 4.1zm25.9-41.6c-16 2.3-31.8 0.9-47.1-2.9q-1.5 6-2.7 11.9c5.4 1.2 9.4 4.2 12.5 8.1 4.6 5.9 7 14 9.7 20.1 2.7-1 5.2-2.2 7.6-3.7 10.4-6.5 17.5-19.4 20-33.5zm0.8-16.3c-0.6-6.7-2.4-13.3-5.5-19.1-6.1 5-13.9 8.9-22 10.1-4.5 0.7-9 0.6-13.3-0.5q-3.2 8.9-5.8 17.9 0 0.3-0.1 0.5c15.1 3.7 30.8 5 46.6 2.6 0.4-3.8 0.4-7.7 0.1-11.5zm-28.8-37.8q-5.8 11.7-10.4 23.9c3.6 0.8 7.3 0.8 11 0.3 7.4-1.2 14.7-4.9 20.2-9.6-4.7-6.6-11.6-11.8-20.8-14.6zm-31.4 0c1.6 4 3.2 8.1 5.4 11.9 1.6 2.5 3.5 4.9 5.9 7 1.7 1.4 3.4 2.6 5.3 3.4q4.5-11.9 10.1-23.4-0.2 0-0.4-0.1c-9.7-1.7-18.5-1.2-26.3 1.2zm-31.3 25.7q-0.6 1-1.1 2.1c12.8 7.2 26.8 13.5 41.4 17.6q0-0.2 0.1-0.4 2.6-9.2 5.8-18.3c-2.3-1-4.6-2.4-6.7-4.2-2.8-2.4-5-5.2-6.8-8.2-2.4-4-4.2-8.4-5.9-12.8q-1.2 0.5-2.4 1.1c-10.3 4.9-18.5 13.2-24.4 23.1zm-1 44.2q1 1.9 2.2 3.8c2.5-1.5 4.9-2.9 7.5-4.2q3.1-1.6 6.5-2.8c2.5-0.8 5-1.7 7.5-2.4q2.7-0.7 5.3-1.1c1.8-0.3 3.6-0.5 5.5-0.6q1.3 0 2.7 0 1.3-6.3 2.9-12.6c-14.9-4.2-29.1-10.5-42.1-17.9-5 12.4-4 26.2 2 37.8zm32.8 24.6q1-13.7 3.4-27.2-0.7 0-1.5 0.1c-1.7 0-3.3 0.2-5 0.5l-11.9 3.3q-3.1 1.1-6 2.5c-2.3 1.2-4.6 2.5-6.9 3.8 6.5 8.2 16 14.5 27.9 17zm26.8-1.7c-2.5-5.8-4.7-13.2-9-18.7-2.3-3.1-5.4-5.4-9.6-6.3q-2.6 13.6-3.5 27.4c2.8 0.4 5.8 0.4 8.7 0.2 3.3-0.3 6.6-0.9 9.7-1.6q1.9-0.5 3.7-1zm98.9-127.1c4.2 1.8 8.1 4.7 11.6 7.8 2.9 2.5 5.6 6.7 5.3 9.9-0.2 2-1.4 4-4.5 5.1q0 0 0 0.1c-6.4 12.5-12.3 25.4-18.9 37.9-4.4 8.4-9.1 16.6-14.4 24.5-2.7 4.1-7.2 10.5-12.4 13.5-4.2 2.4-8.8 2.9-13.5-0.8-3.6-2.7-4.9-6.8-4.9-11.1 0-5.6 2.2-11.8 3.9-16.2 2.6-6.4 5.5-12.5 8.6-18.6 6.8-13.4 14.5-26.3 21.1-39.8-3.5-4.2-3.2-8-1.2-10.7 1.9-2.3 5.4-3.8 9.8-3.7 3.4 0.1 6.5 0.8 9.5 2.1zm6.9 23.3h-0.8c-4.2-0.5-8.2-2-11.9-3.9-2.8-1.5-5.4-3.3-7.9-5.2-6.7 13.6-14.4 26.5-21.3 40-3 6-5.9 12-8.4 18.3-1.5 3.8-3.6 9.4-3.6 14.4 0 2.9 0.8 5.6 3.1 7.4 2.9 2.2 5.7 1.9 8.2 0.4 4.6-2.6 8.5-8.4 10.9-12 5.2-7.8 9.8-15.9 14.1-24.1 6.1-11.7 11.7-23.6 17.6-35.3zm1.5-12c-2.6-2.3-5.4-4.5-8.5-6.1-2.9-1.5-6-2.5-9.5-2.6-2.6-0.1-4.9 0.6-6 2-0.7 0.9-0.6 2.2 0.4 3.7 0.8-0.2 1.6-0.1 2.3 0.5 2.8 2.4 5.9 4.6 9.3 6.4 3.2 1.7 6.7 3 10.3 3.4l2.9 0.1c2-0.4 2.8-1.1 2.5-2.2-0.4-1.8-2.1-3.8-3.7-5.2zm-332.4 57.6c-0.4-4.9-0.9-9.6 0.2-13.9 0.9-3.1 2.5-5.9 5.6-8.4 3.5-2.7 7.7-4.4 12.3-5.3 6.3-1.3 13.1-1.4 18.9-1.6 14.8-0.6 29.6-1.7 44.3-2.1 9.9-0.3 19.9-0.3 29.8 0.3 7.9 0.4 15.3 0.1 20.8 3.1 3.9 2.1 7 5.7 8.6 12.3 0.6 2.4 1 4.9 1.3 7.5 0.7 5.6 0.7 11.4 1.3 17l3.4 32.6c0.3 3.7 1.5 9.9 0.9 14.9-0.3 2.8-1.2 5.3-2.9 7-3 3.2-7.4 5.1-12.5 6-9.8 1.7-22-0.1-29.7 0.1l-17.8 0.6 1.2 14.8h1.5l11.5-0.3c0.5 0 2-0.2 3-0.1 0.9 0.1 1.5 0.4 1.9 0.7 0.5 0.4 1.2 1.3 1.5 2.8 0.4 2 0.4 5.4 0.6 6.4 0.1 0.8 0.8 3.2 0.9 4.8 0 1.1-0.2 2-0.5 2.5-0.2 0.4-0.8 1.1-2 1.3-1.2 0.3-4.4 0.2-5.1 0.2l-15.6 0.7-24 1.2c-1.9 0.1-4.9 0.5-7.5 0.4-1.4-0.1-2.8-0.3-3.8-0.6-0.4-0.2-1.4-0.7-1.7-2-0.1-0.8-0.2-2.9-0.3-3.2l-1.1-10.8c-0.2-1.3 0.7-2.5 2-2.7h0.2q0.6-0.4 1.3-0.4l17-0.5-2.3-14.5-17 0.5c-6.2 0.2-13.2 0.7-19.6-0.6-4.6-1-8.9-2.8-12.5-6-2.3-2.2-4-4.8-5.3-7.7-1.7-3.9-2.7-8.3-3.8-12.2l-0.1-0.3c-1-5.9-1.8-11.8-2.5-17.8-1-8.9-1.7-17.8-2.4-26.7zm73.1 89.9l-23.2 0.6 0.9 8.6 0.1 1.6c0.7 0.1 1.4 0.1 2.1 0.1 2.2-0.1 4.7-0.4 6.3-0.4l23.9-1.2 15.7-0.8h2.7c-0.2-1.2-0.5-2.8-0.6-3.3-0.1-0.8-0.5-4.3-0.6-5.8-0.7 0-1.5 0-1.7 0l-11.2 0.3zm6.7-19.6l-11.9 0.4 2.2 14q0.1 0.3 0 0.6l2.8-0.1 8-0.1zm62.5-24.9l-131.4 2.9c0.6 2.3 1.3 4.6 2.3 6.8 1 2.3 2.3 4.4 4.1 6.1 3 2.6 6.5 4.1 10.3 4.8 6 1.3 12.6 0.8 18.4 0.6l56.2-1.8c6.5-0.1 16.3 1.2 25.1 0.4 5.5-0.4 10.6-1.6 13.8-5 1.4-1.5 1.7-3.8 1.8-6.2 0.1-2.9-0.3-6-0.6-8.6zm-137.5-45.8c0.6 8.9 1.4 17.7 2.4 26.6 0.6 5.8 1.4 11.6 2.4 17.4q0 0 0 0l132.1-2.9-3.3-31.3c-0.4-4.9-0.6-9.8-1-14.6-0.3-3.1-0.7-6.2-1.5-9.3-1.2-4.9-3.3-7.7-6.2-9.2-5-2.7-11.7-2.2-18.9-2.6-9.7-0.6-19.5-0.6-29.3-0.3-14.7 0.4-29.5 1.5-44.2 2.1-5.6 0.3-12.2 0.3-18.2 1.5-3.8 0.8-7.4 2.1-10.3 4.4-2.2 1.8-3.4 3.8-3.9 6-1 3.7-0.5 7.9-0.1 12.2z"/></svg>